<?xml version="1.0" standalone="no"?>
<!DOCTYPE svg PUBLIC "-//W3C//DTD SVG 20010904//EN"
 "http://www.w3.org/TR/2001/REC-SVG-20010904/DTD/svg10.dtd">
<svg version="1.0" xmlns="http://www.w3.org/2000/svg"
 width="600.000000pt" height="600.000000pt" viewBox="0 0 600.000000 600.000000"
 preserveAspectRatio="xMidYMid meet">
<metadata>
Created by potrace 1.16, written by Peter Selinger 2001-2019
</metadata>
<g transform="translate(0.000000,600.000000) scale(0.100000,-0.100000)"
fill="#000000" stroke="none">
<path d="M1495 4500 l-1500 -1500 1503 -1503 1502 -1502 1502 1502 1503 1503
-1500 1500 c-825 825 -1502 1500 -1505 1500 -3 0 -680 -675 -1505 -1500z
m1696 329 c863 -88 1550 -775 1638 -1638 57 -556 -135 -1098 -528 -1492 -718
-718 -1884 -718 -2602 0 -586 587 -708 1495 -297 2215 361 631 1062 990 1789
915z"/>
<path d="M2870 4654 c-430 -50 -754 -199 -1035 -479 -258 -256 -410 -555 -476
-935 -17 -96 -17 -383 0 -480 63 -372 218 -678 471 -930 254 -255 571 -414
935 -471 103 -16 367 -16 470 0 364 57 681 216 935 471 253 252 408 558 471
930 17 97 17 384 0 480 -65 377 -217 676 -471 930 -250 251 -542 401 -902 466
-83 14 -331 26 -398 18z m-806 -1255 c89 -18 156 -63 189 -128 l27 -55 0 -313
0 -313 -120 0 -120 0 0 40 c0 22 -2 40 -5 40 -3 0 -25 -15 -49 -34 -61 -46
-107 -61 -196 -61 -84 0 -131 18 -181 68 -46 46 -62 85 -67 169 -4 69 -2 83
23 133 46 95 133 137 333 160 70 8 131 15 136 15 16 0 -5 55 -29 77 -32 28
-124 47 -189 38 -28 -3 -84 -17 -124 -31 -40 -13 -75 -24 -77 -24 -3 0 -5 45
-5 99 l0 99 78 15 c94 18 298 21 376 6z m956 -20 l65 -24 3 -108 c3 -103 2
-107 -18 -107 -12 0 -38 13 -58 30 -48 38 -112 60 -174 60 -125 0 -198 -88
-198 -239 0 -36 5 -84 11 -106 15 -53 73 -110 129 -125 80 -22 198 9 250 66
13 13 32 24 42 24 16 0 18 -10 18 -109 l0 -110 -55 -20 c-192 -72 -428 -38
-544 78 -146 146 -149 441 -6 599 40 45 111 86 186 107 83 23 265 15 349 -16z
m785 12 c38 -17 98 -74 107 -102 3 -9 18 -2 48 24 25 21 71 51 104 67 106 53
223 36 293 -43 57 -65 63 -106 63 -444 l0 -303 -125 0 -125 0 0 265 c0 308 -4
327 -67 344 -46 12 -98 1 -137 -30 l-26 -20 0 -280 0 -279 -119 0 -119 0 -4
268 c-3 171 -9 277 -16 295 -24 57 -107 69 -179 25 l-33 -20 0 -284 0 -284
-125 0 -125 0 0 400 0 400 125 0 125 0 0 -41 0 -41 34 26 c74 56 125 76 195
76 42 0 81 -7 106 -19z"/>
<path d="M1962 2959 c-131 -16 -167 -42 -167 -120 0 -65 18 -81 93 -87 41 -3
68 1 89 12 57 29 63 41 63 121 0 41 -3 75 -7 78 -5 2 -36 0 -71 -4z"/>
</g>
</svg>
