<?xml version="1.0" standalone="no"?>
<!DOCTYPE svg PUBLIC "-//W3C//DTD SVG 20010904//EN"
 "http://www.w3.org/TR/2001/REC-SVG-20010904/DTD/svg10.dtd">
<svg version="1.0" xmlns="http://www.w3.org/2000/svg"
 width="400.000000pt" height="400.000000pt" viewBox="0 0 400.000000 400.000000"
 preserveAspectRatio="xMidYMid meet">

<g transform="translate(0.000000,400.000000) scale(0.100000,-0.100000)"
fill="#000000" stroke="none">
<path d="M0 2000 l0 -2000 2000 0 2000 0 0 2000 0 2000 -2000 0 -2000 0 0
-2000z m2565 1559 c597 -71 1105 -508 1268 -1089 39 -138 51 -235 51 -405 0
-137 -4 -192 -22 -283 -62 -308 -193 -554 -417 -778 -216 -216 -453 -347 -760
-417 -87 -20 -123 -21 -947 -24 l-858 -4 0 1506 0 1505 798 0 c505 0 830 -4
887 -11z"/>
<path d="M950 2795 l0 -705 700 0 700 0 0 705 0 705 -700 0 -700 0 0 -705z
m638 568 l53 -34 70 40 c39 23 78 41 88 41 9 0 82 -40 161 -88 l145 -88 3 -95
3 -94 75 -43 74 -43 -2 -162 -3 -162 -72 -40 -73 -40 0 -95 0 -95 -156 -93
-155 -94 -76 44 c-42 23 -81 42 -86 40 -6 -2 -41 -21 -78 -44 l-68 -40 -155
94 -156 93 0 95 0 95 -73 40 -72 40 -3 162 -2 161 74 43 75 44 3 95 3 95 154
92 c170 103 149 100 249 36z"/>
<path d="M1361 3278 c-120 -73 -131 -82 -131 -109 l0 -29 80 0 c71 0 82 3 104
25 32 32 70 32 101 0 41 -40 30 -92 -24 -114 -24 -10 -34 -10 -60 3 -17 9 -31
21 -31 26 0 6 -18 10 -40 10 l-40 0 0 -66 c0 -59 3 -68 25 -86 51 -40 17 -128
-49 -128 -57 0 -89 86 -46 125 16 15 20 31 20 87 0 61 -2 68 -20 68 -17 0 -20
-7 -20 -40 0 -39 -1 -40 -75 -82 l-75 -43 0 -122 0 -123 128 0 c86 0 132 -4
140 -12 8 -8 12 -48 12 -115 l0 -103 28 0 c16 0 37 9 47 20 40 45 125 12 125
-48 0 -60 -78 -94 -120 -52 -14 14 -33 20 -62 20 -74 0 -74 1 -77 153 l-1 77
-62 0 c-62 -1 -62 -1 -35 -16 26 -14 27 -16 27 -109 l0 -94 88 -54 c48 -29
107 -65 132 -79 l45 -26 63 36 62 36 0 298 0 298 -65 0 -65 0 0 -78 c0 -71 2
-81 25 -102 32 -30 32 -70 2 -98 -31 -29 -72 -28 -102 3 -32 31 -31 56 0 93
22 26 25 40 27 128 l3 99 88 3 87 3 0 162 0 162 -64 36 -63 36 -132 -79z"/>
<path d="M1735 3321 l-60 -38 -3 -101 -3 -102 101 0 c55 0 100 3 100 6 0 3
-11 19 -25 36 -28 33 -30 46 -14 82 14 30 55 47 86 35 52 -19 65 -92 23 -122
-10 -7 -20 -28 -22 -47 -3 -35 -4 -35 -55 -38 -51 -3 -53 -4 -53 -33 0 -16 9
-38 20 -49 26 -26 26 -81 2 -103 -44 -40 -122 -7 -122 51 0 16 9 37 20 47 13
11 20 31 20 52 0 33 -1 34 -37 31 l-38 -3 -2 -355 -3 -355 50 -27 c28 -16 52
-28 55 -28 3 0 5 54 5 119 0 130 1 131 62 131 16 0 41 9 55 20 33 26 63 25 97
-1 32 -25 35 -70 6 -99 -30 -30 -72 -30 -106 1 -11 10 -30 19 -42 19 -21 0
-22 -4 -22 -95 l0 -95 113 69 112 70 3 95 3 95 74 43 75 42 0 53 0 53 -115 0
-115 0 0 -68 c0 -40 -5 -73 -12 -80 -7 -7 -34 -12 -60 -12 -35 0 -54 -6 -68
-20 -24 -24 -67 -26 -98 -4 -26 18 -30 69 -6 102 20 29 76 30 104 2 11 -11 33
-20 50 -20 l30 0 0 68 c0 40 5 73 12 80 8 8 55 12 145 12 l133 0 0 43 0 43
-75 43 -75 42 0 93 0 94 -112 68 c-62 37 -122 73 -133 80 -17 10 -29 6 -80
-25z"/>
<path d="M1880 3175 c0 -8 7 -15 15 -15 8 0 15 7 15 15 0 8 -7 15 -15 15 -8 0
-15 -7 -15 -15z"/>
<path d="M1450 3121 c0 -12 6 -21 16 -21 9 0 14 7 12 17 -5 25 -28 28 -28 4z"/>
<path d="M1765 2901 c-3 -5 -1 -12 5 -16 12 -7 30 2 30 16 0 12 -27 12 -35 0z"/>
<path d="M1280 2885 c0 -8 7 -15 15 -15 8 0 15 7 15 15 0 8 -7 15 -15 15 -8 0
-15 -7 -15 -15z"/>
<path d="M1452 2684 c4 -21 22 -23 26 -1 2 10 -3 17 -13 17 -10 0 -15 -6 -13
-16z"/>
<path d="M1775 2660 c-7 -12 2 -30 16 -30 5 0 9 9 9 20 0 21 -15 27 -25 10z"/>
<path d="M1932 2478 c6 -18 28 -21 28 -4 0 9 -7 16 -16 16 -9 0 -14 -5 -12
-12z"/>
<path d="M1470 2426 c0 -21 21 -31 30 -15 5 7 6 17 4 21 -9 14 -34 9 -34 -6z"/>
<path d="M950 1325 l0 -695 700 0 700 0 -2 693 -3 692 -697 3 -698 2 0 -695z
m430 565 l0 -60 50 0 50 0 0 60 c0 57 1 60 25 60 24 0 25 -3 25 -60 l0 -60 50
0 50 0 0 61 c0 60 0 60 28 57 26 -3 27 -5 27 -60 l0 -58 48 0 47 0 0 60 c0 57
1 60 25 60 24 0 25 -3 25 -60 l0 -60 50 0 50 0 0 60 0 60 30 0 c30 0 30 0 30
-59 l0 -59 62 -4 c83 -6 108 -33 108 -119 l0 -59 58 0 c32 0 61 -2 64 -5 3 -3
3 -17 0 -30 -4 -23 -8 -25 -63 -25 l-59 0 0 -45 0 -45 60 0 c59 0 60 -1 60
-27 0 -27 -1 -28 -57 -28 l-58 0 -3 -47 -3 -48 59 0 c44 0 61 -4 66 -15 12
-33 -4 -45 -65 -45 l-59 0 0 -45 0 -45 60 0 60 0 0 -30 0 -30 -60 0 -60 0 0
-45 0 -45 59 0 c55 0 59 -2 63 -25 3 -13 3 -27 0 -30 -3 -3 -32 -5 -64 -5
l-58 0 0 -60 c0 -51 -4 -65 -25 -85 -20 -21 -34 -25 -85 -25 l-60 0 0 -65 0
-65 -30 0 -30 0 0 66 0 65 -47 -3 -48 -3 -3 -62 c-3 -59 -4 -63 -27 -63 -24 0
-25 3 -25 65 l0 65 -45 0 -44 0 -3 -62 c-3 -60 -4 -63 -30 -66 l-28 -3 0 66 0
66 -47 -3 -48 -3 -3 -62 c-3 -59 -4 -63 -27 -63 -23 0 -24 4 -27 63 l-3 62
-45 0 -45 0 -3 -62 c-3 -59 -4 -63 -27 -63 -23 0 -24 4 -27 63 l-3 62 -50 3
c-27 1 -60 4 -72 7 -31 7 -53 54 -53 115 l0 50 -60 0 -60 0 0 30 0 30 60 0 60
0 0 45 0 45 -60 0 -60 0 0 30 0 30 60 0 60 0 0 45 0 45 -60 0 -60 0 0 30 0 30
60 0 60 0 0 50 0 50 -60 0 c-57 0 -60 1 -60 25 0 24 3 25 60 25 l60 0 0 45 0
45 -60 0 -60 0 0 30 0 30 60 0 60 0 0 56 c0 30 5 64 10 75 16 29 64 49 120 49
l50 0 0 60 c0 57 1 60 25 60 24 0 25 -3 25 -60z"/>
<path d="M1223 1763 c-10 -4 -13 -101 -13 -438 0 -419 1 -435 19 -445 13 -6
168 -10 435 -10 364 0 417 2 430 16 14 13 16 66 16 430 0 267 -4 422 -10 435
-10 18 -25 19 -438 18 -235 0 -433 -3 -439 -6z m633 -43 c54 -21 53 -17 54
-413 l0 -368 -25 -25 -25 -25 -211 3 c-208 3 -211 3 -230 27 -18 22 -19 44
-19 382 0 383 2 401 49 418 36 13 373 14 407 1z"/>
<path d="M1465 1658 c-3 -7 -4 -168 -3 -358 l3 -345 193 -3 192 -2 -2 357 -3
358 -188 3 c-145 2 -189 0 -192 -10z m275 -70 c95 -65 91 -203 -8 -261 -41
-24 -113 -24 -155 0 -39 23 -77 87 -77 131 0 46 33 105 72 131 46 29 124 29
168 -1z m-27 -380 c23 -27 22 -80 -2 -103 -13 -11 -21 -33 -23 -64 -3 -42 -5
-46 -30 -49 -27 -3 -28 -1 -28 41 0 34 -6 49 -25 67 -40 38 -30 110 18 130 30
13 69 3 90 -22z"/>
<path d="M1614 1544 c-57 -28 -72 -106 -30 -149 32 -32 69 -40 107 -25 39 16
59 46 59 88 0 46 -16 71 -55 88 -42 17 -43 17 -81 -2z"/>
<path d="M1647 1173 c-4 -3 -7 -12 -7 -20 0 -15 26 -18 34 -4 7 11 -18 33 -27
24z"/>
</g>
</svg>
