<svg id="svg" xmlns="http://www.w3.org/2000/svg" xmlns:xlink="http://www.w3.org/1999/xlink" width="400" height="381.9947043248014" viewBox="0, 0, 400,381.9947043248014" version="1.1"><g id="svgg"><path id="path0" d="M198.941 0.241 C 180.843 1.805,158.301 8.344,134.863 18.827 C 123.348 23.978,124.166 23.379,124.332 26.538 L 124.448 28.753 123.036 29.431 C 120.405 30.696,119.289 30.460,118.674 28.508 C 118.050 26.527,117.473 26.395,114.675 27.599 L 112.891 28.367 113.100 30.137 C 113.412 32.768,113.926 33.118,116.106 32.180 C 118.947 30.958,119.104 31.032,119.876 33.956 C 120.484 36.264,120.331 36.557,117.873 37.798 C 115.607 38.942,115.353 39.569,116.186 41.960 C 116.644 43.272,117.038 43.317,119.345 42.325 C 121.564 41.370,121.928 41.540,122.589 43.834 C 123.262 46.170,122.957 46.802,120.611 47.940 C 118.658 48.887,118.464 49.252,118.782 51.372 C 119.065 53.261,119.762 53.423,122.300 52.190 C 125.837 50.472,127.113 55.758,123.620 57.659 C 121.272 58.937,120.980 59.356,121.265 61.044 C 121.625 63.175,122.134 63.396,124.232 62.333 C 126.729 61.067,127.335 61.139,127.784 62.754 C 128.582 65.630,128.235 66.332,125.202 67.961 C 123.719 68.758,123.377 69.602,123.827 71.348 C 124.257 73.015,125.213 73.050,127.651 71.491 L 129.653 70.210 129.425 68.189 C 129.172 65.950,129.627 65.243,132.392 63.585 C 134.073 62.578,134.417 62.643,135.017 64.078 C 135.793 65.934,136.216 65.805,147.605 60.241 C 212.042 28.758,240.224 23.120,244.899 40.777 C 245.363 42.531,245.365 42.522,245.185 39.417 C 243.775 15.120,223.686 -1.899,198.941 0.241 M134.510 23.108 C 134.510 23.906,133.924 24.360,132.893 24.360 C 132.035 24.360,132.281 22.614,133.186 22.272 C 134.202 21.888,134.510 22.083,134.510 23.108 M140.356 25.806 C 140.735 26.419,139.552 27.425,139.047 26.920 C 138.734 26.607,138.743 26.378,139.087 25.964 C 139.620 25.322,140.026 25.272,140.356 25.806 M130.650 29.187 C 131.199 30.631,130.935 31.132,129.313 31.722 C 127.590 32.350,127.490 32.296,127.212 30.584 C 127.019 29.394,127.086 29.272,128.198 28.789 C 129.882 28.058,130.243 28.116,130.650 29.187 M136.856 32.308 C 137.116 32.988,136.379 33.892,135.564 33.892 C 134.774 33.892,134.370 32.898,134.900 32.259 C 135.437 31.612,136.600 31.642,136.856 32.308 M126.362 35.094 C 128.020 37.092,127.466 38.813,124.818 39.887 C 120.835 41.504,119.428 37.243,123.356 35.457 C 125.496 34.484,125.823 34.444,126.362 35.094 M142.807 35.309 C 142.807 35.598,142.449 35.885,142.012 35.947 C 141.240 36.057,140.910 35.378,141.466 34.822 C 141.877 34.410,142.807 34.748,142.807 35.309 M109.885 36.360 C 107.453 37.843,108.657 40.868,111.219 39.713 C 113.113 38.859,113.414 38.420,113.133 36.920 C 112.849 35.409,111.754 35.220,109.885 36.360 M133.403 39.201 C 133.817 40.391,132.310 41.782,130.827 41.577 C 129.133 41.343,129.485 39.133,131.341 38.352 C 132.784 37.745,132.914 37.799,133.403 39.201 M139.219 42.429 C 138.494 43.229,137.736 43.254,137.441 42.487 C 137.068 41.514,138.749 40.349,139.346 41.166 C 139.724 41.682,139.702 41.895,139.219 42.429 M145.455 43.612 C 145.455 44.176,144.516 44.722,144.160 44.366 C 144.047 44.253,144.049 43.916,144.164 43.616 C 144.435 42.911,145.455 42.907,145.455 43.612 M129.203 44.999 C 129.438 45.283,129.715 46.145,129.819 46.914 L 130.006 48.314 127.855 49.400 C 125.152 50.764,125.056 50.758,124.405 49.200 C 123.643 47.376,123.990 46.524,125.939 45.439 C 127.867 44.366,128.596 44.268,129.203 44.999 M112.585 46.716 C 110.761 47.964,111.119 50.861,113.037 50.361 C 114.345 50.020,116.152 48.777,116.152 48.219 C 116.152 45.933,114.654 45.302,112.585 46.716 M136.272 48.876 C 136.269 49.702,133.527 51.409,133.019 50.901 C 132.131 50.012,132.569 48.588,133.981 47.779 C 135.533 46.889,136.279 47.246,136.272 48.876 M142.277 50.026 C 142.277 50.637,141.300 51.516,140.600 51.533 C 139.874 51.552,140.101 50.213,140.922 49.638 C 141.774 49.041,142.277 49.185,142.277 50.026 M148.279 51.015 C 148.279 51.306,148.212 51.545,148.131 51.545 C 148.050 51.545,147.732 51.641,147.425 51.759 C 147.067 51.896,146.867 51.781,146.867 51.435 C 146.867 50.947,147.315 50.587,148.014 50.513 C 148.160 50.498,148.279 50.724,148.279 51.015 M132.435 55.433 C 132.955 57.168,132.321 58.022,129.552 59.319 C 127.541 60.261,127.180 60.101,126.859 58.126 C 126.362 55.058,131.569 52.543,132.435 55.433 M138.877 56.575 C 139.212 57.824,139.192 57.856,137.443 58.966 C 134.912 60.571,134.039 58.372,136.534 56.676 C 138.155 55.575,138.604 55.555,138.877 56.575 M115.181 56.836 C 113.899 57.618,113.560 59.538,114.559 60.367 C 115.238 60.931,118.387 59.456,118.566 58.489 C 118.985 56.225,117.430 55.465,115.181 56.836 M145.102 57.344 C 145.102 57.962,143.372 59.376,142.942 59.109 C 142.438 58.798,142.578 58.328,143.403 57.560 C 144.301 56.723,145.102 56.621,145.102 57.344 M117.843 66.795 C 115.986 67.871,115.705 70.298,117.411 70.522 C 118.355 70.646,120.885 69.140,121.034 68.365 C 121.470 66.103,120.154 65.455,117.843 66.795 " stroke="none" fill="#454443" fill-rule="evenodd"></path><path id="path1" d="M211.474 0.736 C 229.349 4.767,240.293 15.571,244.348 33.186 C 251.309 63.426,227.392 97.204,167.286 142.022 C 153.527 152.282,154.087 151.690,154.452 155.583 L 154.698 158.212 153.326 159.512 C 149.959 162.702,148.480 162.710,147.563 159.544 C 146.886 157.204,146.346 157.039,144.097 158.482 C 141.447 160.183,140.729 161.103,140.999 162.454 C 141.877 166.841,142.293 167.089,145.303 165.015 C 147.784 163.307,148.281 163.468,149.224 166.284 C 150.558 170.269,150.241 171.430,147.159 173.833 C 144.854 175.631,144.662 176.223,145.414 179.211 C 146.190 182.293,146.812 182.484,149.390 180.431 C 152.158 178.228,152.645 178.547,153.907 183.394 C 154.859 187.052,154.600 187.849,151.614 190.471 C 149.023 192.746,148.896 193.269,149.985 197.176 C 150.750 199.921,151.467 200.084,153.980 198.084 C 156.970 195.703,157.332 195.944,158.723 201.236 C 159.960 205.944,159.849 206.401,156.726 209.446 C 154.082 212.025,153.831 212.769,154.613 215.711 C 154.794 216.390,155.117 217.621,155.331 218.447 C 155.858 220.478,156.842 220.457,159.419 218.358 C 162.504 215.845,162.834 216.118,164.497 222.551 C 165.916 228.036,165.758 228.738,162.369 232.017 C 159.301 234.987,159.322 234.754,161.377 242.630 C 161.897 244.624,163.071 244.455,165.835 241.990 C 168.797 239.347,169.037 238.434,167.872 234.225 C 166.367 228.783,166.740 227.193,170.274 223.995 C 173.265 221.288,173.780 221.500,175.121 225.991 C 176.803 231.624,177.591 231.574,185.039 225.367 C 254.203 167.732,288.193 107.424,279.485 57.795 C 275.601 35.657,278.482 20.659,287.912 13.929 C 290.707 11.935,290.732 11.404,288.080 10.354 C 279.366 6.903,266.639 7.665,257.133 12.206 C 254.042 13.683,254.712 13.756,251.489 11.591 C 241.253 4.714,225.013 -0.071,212.250 0.030 L 208.473 0.060 211.474 0.736 M166.922 148.332 C 167.082 149.714,165.011 151.195,164.293 150.213 C 163.596 149.259,163.695 148.776,164.760 147.938 C 165.962 146.992,166.784 147.142,166.922 148.332 M174.532 149.868 C 174.881 150.776,173.881 152.162,172.877 152.162 C 172.337 152.162,172.434 151.011,173.037 150.243 C 173.851 149.209,174.242 149.111,174.532 149.868 M162.566 157.995 C 163.105 159.823,163.006 160.057,161.082 161.527 C 159.010 163.109,158.699 163.074,158.175 161.202 C 157.604 159.166,157.853 158.528,159.661 157.391 C 161.600 156.171,162.056 156.266,162.566 157.995 M170.532 160.489 C 170.906 161.473,170.799 161.798,169.701 163.019 C 168.728 164.099,168.190 164.017,167.738 162.720 C 167.066 160.794,169.814 158.600,170.532 160.489 M178.470 163.124 C 178.707 163.870,177.846 165.578,177.233 165.578 C 176.750 165.578,176.235 164.431,176.441 163.813 C 176.936 162.325,178.091 161.932,178.470 163.124 M157.603 167.406 C 159.652 170.331,159.059 173.319,155.967 175.643 C 152.952 177.909,152.618 177.798,151.613 174.183 C 150.842 171.410,151.206 170.590,154.217 168.316 C 156.760 166.395,156.874 166.365,157.603 167.406 M166.745 172.485 C 167.421 174.863,167.348 175.085,165.359 176.715 C 163.476 178.258,163.004 178.149,162.414 176.039 C 161.806 173.869,162.105 172.983,163.890 171.665 C 165.923 170.164,166.099 170.214,166.745 172.485 M137.945 172.987 C 136.080 174.851,136.006 175.201,136.947 177.670 C 137.810 179.934,142.197 176.607,141.781 174.004 C 141.254 170.708,140.440 170.492,137.945 172.987 M175.310 176.022 C 175.480 176.870,175.324 177.340,174.581 178.223 C 173.382 179.648,173.076 179.633,172.444 178.123 C 171.792 176.560,171.750 176.755,173.047 175.278 C 174.304 173.846,174.915 174.047,175.310 176.022 M183.663 178.497 C 184.141 179.548,183.428 181.289,182.519 181.289 C 181.628 181.289,181.266 179.527,181.944 178.492 C 182.698 177.341,183.136 177.342,183.663 178.497 M162.020 183.020 C 164.853 186.434,163.384 191.854,158.987 194.207 C 157.531 194.986,155.657 191.720,155.705 188.488 C 155.741 186.059,160.862 181.625,162.020 183.020 M171.928 189.394 C 172.790 191.985,172.724 192.227,170.574 194.310 C 168.821 196.008,168.258 195.843,167.539 193.423 C 166.696 190.583,166.796 190.178,168.792 188.384 C 170.925 186.466,170.957 186.476,171.928 189.394 M142.767 188.191 C 140.404 190.045,139.965 191.440,140.899 194.122 C 141.985 197.235,146.654 192.977,145.814 189.641 C 145.104 186.820,144.737 186.645,142.767 188.191 M180.793 192.321 C 181.651 194.572,181.600 195.154,180.439 196.315 C 178.234 198.519,176.743 194.614,178.913 192.321 C 179.418 191.787,179.965 191.350,180.128 191.350 C 180.290 191.350,180.590 191.787,180.793 192.321 M190.447 196.363 C 190.951 197.560,190.853 198.220,190.028 199.182 C 188.797 200.618,187.557 197.816,188.671 196.115 C 189.439 194.943,189.876 195.004,190.447 196.363 M167.490 201.677 C 170.047 205.616,169.690 209.662,166.526 212.621 C 163.450 215.497,162.871 215.353,161.671 211.406 C 160.372 207.134,160.608 206.048,163.438 203.279 C 166.081 200.693,166.694 200.451,167.490 201.677 M146.487 207.197 L 144.653 208.965 144.891 210.763 C 145.431 214.830,146.363 215.261,149.131 212.720 C 150.844 211.147,150.850 211.134,150.640 209.358 C 150.152 205.241,149.090 204.688,146.487 207.197 M178.178 208.478 C 179.339 211.650,179.249 212.290,177.357 214.313 C 175.117 216.708,174.606 216.626,173.712 213.732 C 172.657 210.315,172.738 209.814,174.665 207.858 C 176.746 205.745,177.208 205.827,178.178 208.478 M188.311 212.540 C 189.147 214.628,189.023 215.432,187.667 216.747 L 186.454 217.922 185.726 216.728 C 184.565 214.823,184.635 213.506,185.974 212.092 C 187.212 210.784,187.641 210.866,188.311 212.540 M152.228 227.707 C 149.580 229.625,149.148 231.394,150.430 235.071 C 151.335 237.667,156.058 234.952,156.042 231.846 C 156.035 230.529,155.047 227.264,154.562 226.956 C 153.893 226.532,153.817 226.556,152.228 227.707 M0.000 323.919 L 0.000 379.523 4.749 379.523 C 13.285 379.523,17.738 377.645,21.229 372.572 C 23.888 368.707,23.810 369.469,24.007 345.413 L 24.184 323.836 39.305 345.834 C 55.792 369.817,57.265 371.645,62.709 374.879 C 68.844 378.524,73.961 379.577,84.873 379.442 L 92.566 379.347 70.453 348.712 L 48.340 318.077 66.430 295.932 C 76.379 283.752,85.546 272.541,86.800 271.020 L 89.081 268.253 79.580 268.402 C 68.944 268.569,67.875 268.757,62.312 271.441 C 55.875 274.546,55.195 275.276,37.947 297.612 L 24.184 315.436 24.004 297.965 C 23.802 278.341,23.842 278.641,20.943 274.745 C 17.259 269.793,13.705 268.314,5.483 268.314 L 0.000 268.314 0.000 323.919 M251.457 268.860 C 246.144 270.290,242.058 274.274,240.383 279.656 C 239.777 281.601,239.718 283.079,239.718 296.125 L 239.718 310.456 237.688 308.342 C 226.851 297.056,205.555 298.118,194.231 310.509 C 181.587 324.343,179.893 353.354,190.829 368.772 C 202.256 384.883,229.899 385.262,239.217 369.435 C 239.551 368.867,239.749 369.070,240.805 371.056 C 244.201 377.442,248.516 379.523,258.352 379.523 L 263.475 379.523 263.247 376.822 C 263.121 375.337,263.019 350.315,263.019 321.218 L 263.019 268.314 258.164 268.337 C 255.163 268.352,252.602 268.551,251.457 268.860 M345.278 268.820 C 341.129 269.976,337.245 273.036,335.288 276.688 C 333.484 280.057,333.287 282.025,333.281 296.801 L 333.274 310.284 331.421 308.309 C 319.393 295.492,295.307 298.830,284.690 314.785 C 274.681 329.828,275.025 356.623,285.398 369.879 C 296.707 384.333,323.118 384.809,332.148 370.723 L 333.377 368.806 334.365 370.761 C 337.624 377.207,342.267 379.523,351.925 379.523 L 357.364 379.523 357.090 378.553 C 356.939 378.019,356.754 352.996,356.679 322.948 L 356.542 268.314 351.705 268.346 C 349.010 268.363,346.163 268.574,345.278 268.820 M383.627 268.871 C 374.214 271.876,371.532 284.115,378.845 290.691 C 385.397 296.581,396.241 294.088,399.320 285.982 C 403.128 275.961,393.682 265.662,383.627 268.871 M125.684 300.130 C 104.765 302.524,92.332 317.909,92.338 341.395 C 92.344 367.148,106.626 381.749,131.862 381.801 C 157.658 381.854,172.645 366.635,172.638 340.398 C 172.630 312.937,153.927 296.897,125.684 300.130 M375.993 334.120 C 375.993 371.184,375.844 369.205,378.947 373.420 C 382.185 377.818,385.567 379.230,393.380 379.445 L 398.941 379.597 398.941 340.549 L 398.941 301.500 387.467 301.500 L 375.993 301.500 375.993 334.120 M135.769 315.655 C 145.686 317.482,150.449 328.087,148.995 345.102 C 147.854 358.457,143.792 364.590,135.266 365.833 C 122.101 367.751,115.180 358.065,115.913 338.747 C 116.572 321.386,123.451 313.386,135.769 315.655 M227.885 316.400 C 237.007 318.690,241.767 329.911,240.061 345.102 C 238.559 358.477,232.508 365.578,222.613 365.578 C 213.440 365.578,208.464 359.153,207.211 345.688 C 205.371 325.912,214.464 313.030,227.885 316.400 M321.801 316.395 C 329.232 318.242,333.501 325.680,333.885 337.449 C 334.475 355.495,328.041 365.781,316.185 365.746 C 306.938 365.719,301.514 357.957,300.894 343.863 C 300.034 324.309,308.561 313.104,321.801 316.395 " stroke="none" fill="#000000" fill-rule="evenodd"></path></g></svg>