<?xml version="1.0" standalone="no"?>
<!DOCTYPE svg PUBLIC "-//W3C//DTD SVG 20010904//EN"
 "http://www.w3.org/TR/2001/REC-SVG-20010904/DTD/svg10.dtd">
<svg version="1.0" xmlns="http://www.w3.org/2000/svg"
 width="200.000000pt" height="200.000000pt" viewBox="0 0 200.000000 200.000000"
 preserveAspectRatio="xMidYMid meet">

<g transform="translate(0.000000,200.000000) scale(0.100000,-0.100000)"
fill="#000000" stroke="none">
<path d="M967 1859 c-106 -25 -202 -105 -251 -209 -26 -56 -30 -76 -29 -145 0
-57 6 -96 22 -136 20 -54 83 -139 102 -139 5 0 20 23 35 51 32 64 104 137 164
167 l45 23 -39 -6 c-55 -9 -124 -46 -165 -89 -41 -43 -52 -37 -77 36 -19 57
-16 174 6 219 11 25 15 26 47 17 50 -14 56 -7 28 34 l-25 37 38 29 c62 49 103
65 178 70 51 3 86 0 123 -13 55 -18 67 -35 25 -35 -32 0 -87 -32 -107 -63 -47
-72 -29 -144 62 -242 95 -102 109 -174 51 -248 -46 -58 -163 -62 -230 -8 l-39
31 -17 -25 c-23 -35 -13 -50 48 -71 122 -42 252 -7 305 83 53 92 38 177 -48
260 -94 91 -111 174 -46 229 27 23 38 26 89 22 73 -5 76 9 11 57 -85 62 -206
88 -306 64z"/>
<path d="M967 1308 c8 -44 13 -48 13 -10 0 17 -4 34 -10 37 -6 4 -7 -6 -3 -27z"/>
<path d="M1023 1308 c1 -20 5 -34 9 -30 4 4 3 21 -1 37 -9 30 -9 30 -8 -7z"/>
<path d="M1054 1329 c-3 -6 -2 -15 3 -20 5 -5 9 -1 9 11 0 23 -2 24 -12 9z"/>
<path d="M1085 1310 c-1 -16 3 -26 7 -24 10 7 10 41 0 47 -4 3 -7 -8 -7 -23z"/>
<path d="M1119 1338 c-5 -21 -6 -59 -1 -62 4 -2 8 11 8 30 0 27 -3 44 -7 32z"/>
<path d="M1143 1308 c1 -20 5 -34 9 -30 4 4 3 21 -1 37 -9 30 -9 30 -8 -7z"/>
<path d="M20 1000 c-15 -27 2 -55 41 -69 24 -8 30 -15 27 -33 -3 -24 -32 -29
-73 -13 -19 7 -19 7 -3 -10 20 -21 70 -24 93 -5 24 20 14 52 -25 78 -46 31
-47 58 -2 54 21 -1 31 2 27 8 -12 19 -73 12 -85 -10z"/>
<path d="M143 1005 c-9 -24 2 -112 17 -130 16 -20 84 -20 104 1 12 11 16 33
15 82 l-2 67 -7 -62 c-8 -69 -22 -93 -54 -93 -36 0 -46 20 -46 87 0 60 -13 83
-27 48z"/>
<path d="M320 940 c0 -47 4 -80 10 -80 6 0 10 26 10 57 l0 57 60 -59 60 -59
-2 84 c-1 69 -2 74 -5 28 -2 -32 -6 -58 -8 -58 -2 0 -27 25 -56 55 -28 30 -56
55 -60 55 -5 0 -9 -36 -9 -80z"/>
<path d="M532 1014 c-23 -10 -44 -64 -37 -95 9 -42 43 -61 102 -57 46 3 48 4
51 36 2 24 -1 32 -12 32 -11 0 -16 -9 -16 -30 0 -27 -3 -30 -30 -30 -17 0 -39
9 -50 20 -57 57 11 147 82 109 16 -9 19 -8 16 3 -5 13 -81 22 -106 12z"/>
<path d="M710 940 c0 -47 4 -80 10 -80 6 0 10 17 10 38 l1 37 34 -37 c20 -21
43 -38 52 -38 12 0 7 10 -20 38 -20 21 -37 42 -37 48 0 12 58 70 64 63 24 -27
56 -95 56 -119 0 -16 5 -30 10 -30 6 0 10 16 10 36 0 21 10 50 25 72 26 39 31
52 17 52 -5 0 -17 -16 -28 -35 -10 -19 -21 -35 -24 -35 -4 0 -14 16 -23 35
-21 44 -53 46 -92 5 -16 -16 -32 -30 -37 -30 -4 0 -8 14 -8 30 0 17 -4 30 -10
30 -6 0 -10 -33 -10 -80z"/>
<path d="M970 956 c0 -77 14 -96 70 -96 52 0 70 26 70 102 0 32 -4 58 -10 58
-6 0 -10 -26 -10 -59 0 -63 -15 -91 -50 -91 -35 0 -50 28 -50 91 0 33 -4 59
-10 59 -6 0 -10 -28 -10 -64z"/>
<path d="M1152 940 c1 -69 2 -74 5 -27 2 31 8 57 12 57 4 0 32 -25 60 -55 29
-30 54 -55 57 -55 2 0 4 36 4 80 0 47 -4 80 -10 80 -6 0 -10 -26 -10 -57 l0
-57 -60 59 -60 59 2 -84z"/>
<path d="M1360 940 c0 -47 4 -80 10 -80 6 0 10 16 10 35 0 19 2 35 5 35 3 0
19 -16 36 -35 17 -19 38 -35 47 -35 11 0 4 12 -21 38 -20 21 -37 42 -37 48 0
13 58 69 65 62 3 -3 16 -36 28 -73 13 -38 28 -70 35 -73 6 -2 18 22 28 52 10
31 21 56 24 56 3 0 14 -25 24 -56 10 -32 22 -54 29 -51 12 4 41 75 53 130 11
50 -14 22 -32 -38 -10 -31 -21 -52 -25 -48 -3 5 -14 32 -24 61 -9 28 -20 52
-24 52 -4 0 -16 -27 -26 -60 -10 -33 -21 -58 -24 -54 -3 3 -13 29 -21 57 -20
66 -50 74 -95 27 -36 -38 -45 -38 -45 0 0 17 -4 30 -10 30 -6 0 -10 -33 -10
-80z"/>
<path d="M1751 998 c-5 -13 -20 -49 -34 -80 -27 -60 -20 -82 8 -28 11 21 23
30 41 30 19 0 28 -7 35 -30 6 -16 17 -30 25 -30 8 0 14 2 14 4 0 11 -69 156
-75 156 -3 0 -9 -10 -14 -22z m29 -55 c0 -7 -7 -13 -15 -13 -15 0 -21 31 -8
43 8 8 23 -12 23 -30z"/>
<path d="M1860 940 c0 -51 4 -80 11 -80 7 0 10 20 7 55 -1 30 -1 55 2 55 2 0
30 -26 62 -57 l58 -57 -2 84 c-1 69 -2 74 -5 28 -2 -32 -7 -58 -12 -58 -4 0
-29 25 -55 55 -26 30 -51 55 -57 55 -5 0 -9 -36 -9 -80z"/>
<path d="M1250 803 c-45 -16 -45 -64 1 -83 41 -17 55 -36 39 -55 -16 -19 -44
-19 -60 0 -7 8 -16 12 -22 9 -19 -12 15 -34 52 -34 71 0 81 62 15 93 -48 23
-45 53 5 50 33 -1 34 0 16 13 -21 15 -23 15 -46 7z"/>
<path d="M390 730 c0 -77 10 -90 69 -90 48 0 61 22 59 98 l-1 67 -6 -61 c-6
-65 -22 -94 -52 -94 -34 0 -49 28 -49 91 0 33 -4 59 -10 59 -6 0 -10 -30 -10
-70z"/>
<path d="M560 720 c0 -47 4 -80 10 -80 6 0 10 28 10 63 l1 62 57 -63 c31 -34
60 -62 65 -62 4 0 7 36 7 80 0 47 -4 80 -10 80 -6 0 -10 -26 -10 -57 l0 -57
-58 57 c-32 31 -61 57 -65 57 -4 0 -7 -36 -7 -80z"/>
<path d="M750 720 c0 -61 3 -81 13 -77 8 2 12 27 12 77 0 50 -4 75 -12 78 -10
3 -13 -17 -13 -78z"/>
<path d="M826 723 c36 -80 41 -89 48 -82 4 5 66 149 66 155 0 2 -4 4 -9 4 -5
0 -20 -27 -33 -60 -12 -33 -25 -60 -28 -60 -3 0 -16 27 -28 60 -13 33 -30 60
-38 60 -10 0 -4 -21 22 -77z"/>
<path d="M960 720 l0 -80 46 0 c27 0 43 4 39 10 -3 6 -20 10 -36 10 -27 0 -30
3 -27 27 2 22 10 29 33 34 l30 6 -30 4 c-24 3 -30 9 -30 29 0 19 6 26 30 31
27 6 26 7 -12 8 l-43 1 0 -80z"/>
<path d="M1080 721 c0 -65 3 -81 15 -81 11 0 15 11 15 38 l1 37 32 -38 c18
-20 38 -37 46 -37 8 0 0 15 -19 36 l-31 36 21 15 c14 10 20 23 18 41 -3 25 -7
27 -50 30 l-48 3 0 -80z m78 45 c2 -10 -2 -22 -10 -27 -25 -17 -38 -9 -38 22
0 26 3 30 22 27 13 -2 24 -11 26 -22z"/>
<path d="M1350 720 c0 -61 3 -81 13 -77 17 5 17 149 0 155 -10 3 -13 -17 -13
-78z"/>
<path d="M1420 791 c23 -6 25 -12 28 -79 4 -95 22 -93 22 3 0 68 2 75 20 75
28 0 70 -66 70 -112 0 -27 4 -38 15 -38 11 0 15 11 15 37 0 21 11 55 25 80 31
52 16 58 -16 7 l-22 -37 -21 37 -21 36 -70 -1 c-45 -1 -61 -3 -45 -8z"/>
<path d="M537 533 c254 -2 672 -2 930 0 257 1 50 2 -462 2 -512 0 -722 -1
-468 -2z"/>
<path d="M503 428 c-48 -23 -39 -69 19 -99 51 -26 48 -52 -5 -59 -50 -7 -52
-24 -4 -28 51 -4 87 19 87 57 0 24 -8 34 -42 53 -54 30 -56 52 -5 56 38 3 49
15 21 26 -22 8 -45 6 -71 -6z"/>
<path d="M1135 432 c-50 -17 -75 -50 -75 -99 0 -58 54 -97 126 -91 l39 3 3 53
3 52 -35 0 c-25 0 -36 -4 -36 -15 0 -8 9 -15 20 -15 15 0 20 -7 20 -25 0 -22
-4 -25 -34 -25 -38 0 -53 14 -62 56 -4 21 0 37 17 58 20 25 27 28 66 23 30 -3
43 -1 43 8 0 21 -53 30 -95 17z"/>
<path d="M1303 430 c-53 -21 -49 -67 8 -100 52 -28 50 -55 -4 -55 -28 0 -37
-4 -35 -15 7 -35 104 -22 118 15 13 35 3 53 -42 76 -48 25 -49 52 0 57 34 3
42 16 16 26 -20 8 -34 7 -61 -4z"/>
<path d="M632 338 c3 -79 6 -93 21 -96 14 -3 17 4 17 45 l1 48 40 -47 c23 -27
50 -48 60 -48 26 0 24 6 -16 53 -19 22 -35 45 -35 50 0 5 14 26 32 46 29 32
30 36 13 40 -13 2 -31 -9 -51 -33 -17 -20 -34 -36 -38 -36 -3 0 -6 16 -6 35 0
29 -4 35 -20 35 -20 0 -21 -5 -18 -92z"/>
<path d="M812 338 c3 -79 6 -93 21 -96 14 -3 17 4 17 45 l1 48 40 -47 c23 -27
50 -48 60 -48 27 0 24 9 -21 59 l-39 45 35 40 c30 35 33 42 17 45 -11 2 -29
-10 -49 -33 -17 -20 -34 -36 -38 -36 -3 0 -6 16 -6 35 0 29 -4 35 -20 35 -20
0 -21 -5 -18 -92z"/>
<path d="M1430 335 l0 -95 39 0 c58 0 89 15 97 46 5 21 2 31 -16 44 -19 15
-20 18 -6 23 21 8 21 63 0 71 -9 3 -38 6 -65 6 l-49 0 0 -95z m88 51 c2 -10
-2 -22 -10 -27 -25 -17 -38 -9 -38 22 0 26 3 30 22 27 13 -2 24 -11 26 -22z
m1 -70 c17 -20 3 -46 -25 -46 -20 0 -24 5 -24 30 0 23 5 30 19 30 10 0 24 -6
30 -14z"/>
<path d="M461 154 c0 -11 3 -14 6 -6 3 7 2 16 -1 19 -3 4 -6 -2 -5 -13z"/>
<path d="M780 146 c0 -8 4 -17 9 -20 5 -4 7 3 4 14 -6 23 -13 26 -13 6z"/>
<path d="M874 140 c0 -13 4 -16 10 -10 7 7 7 13 0 20 -6 6 -10 3 -10 -10z"/>
<path d="M1160 130 c-9 -6 -10 -10 -3 -10 6 0 15 5 18 10 8 12 4 12 -15 0z"/>
</g>
</svg>
