<svg id="svg" version="1.1" xmlns="http://www.w3.org/2000/svg" xmlns:xlink="http://www.w3.org/1999/xlink" width="400" height="391.53439153439155" viewBox="0, 0, 400,391.53439153439155"><g id="svgg"><path id="path0" d="M193.536 11.953 C 193.213 12.042,190.271 12.289,187.000 12.502 C 182.375 12.802,180.411 13.109,178.173 13.882 C 176.590 14.428,173.744 15.146,171.849 15.476 C 169.954 15.807,167.755 16.400,166.963 16.796 C 166.172 17.191,164.643 17.729,163.565 17.993 C 162.488 18.256,160.725 18.968,159.647 19.574 C 158.570 20.181,156.698 20.960,155.487 21.304 C 154.276 21.649,153.063 22.199,152.791 22.527 C 152.520 22.854,151.365 23.393,150.226 23.724 C 149.088 24.056,147.921 24.611,147.633 24.959 C 147.346 25.307,146.141 26.019,144.956 26.541 C 143.771 27.063,142.449 27.811,142.018 28.203 C 141.587 28.595,140.697 29.242,140.042 29.639 C 135.586 32.340,133.538 33.798,130.460 36.459 C 129.706 37.111,127.679 38.802,125.955 40.217 C 122.647 42.933,115.792 49.792,114.073 52.106 C 113.513 52.860,112.371 54.270,111.536 55.240 C 108.758 58.465,106.432 61.694,105.028 64.277 C 104.611 65.046,103.973 65.920,103.611 66.220 C 103.250 66.520,102.524 67.737,102.000 68.923 C 101.475 70.109,100.793 71.359,100.484 71.701 C 100.175 72.042,99.657 73.073,99.333 73.992 C 99.009 74.911,98.398 76.102,97.976 76.639 C 97.553 77.176,96.908 78.531,96.541 79.650 C 96.174 80.769,95.547 82.151,95.148 82.721 C 94.749 83.291,94.140 84.878,93.796 86.247 C 93.452 87.616,92.743 89.478,92.221 90.383 C 91.686 91.310,91.018 93.485,90.691 95.361 C 90.371 97.194,89.742 99.625,89.293 100.765 C 88.800 102.016,88.176 105.321,87.718 109.107 C 87.301 112.556,86.800 116.347,86.604 117.532 C 86.011 121.114,86.113 135.081,86.756 138.442 C 87.067 140.069,87.517 143.566,87.756 146.214 C 88.227 151.442,88.583 153.222,89.696 155.926 C 90.095 156.895,90.624 159.009,90.871 160.624 C 91.121 162.260,91.724 164.253,92.233 165.129 C 92.735 165.993,93.351 167.669,93.601 168.854 C 93.851 170.039,94.476 171.646,94.991 172.425 C 95.505 173.204,96.128 174.594,96.376 175.514 C 96.624 176.434,97.247 177.824,97.761 178.603 C 98.276 179.382,98.974 180.808,99.312 181.771 C 99.651 182.735,100.267 183.883,100.680 184.323 C 101.094 184.763,101.708 185.738,102.045 186.489 C 102.382 187.240,103.263 188.737,104.003 189.814 C 104.743 190.891,105.931 192.625,106.641 193.667 C 109.124 197.307,113.136 202.445,115.892 205.516 C 118.834 208.794,118.897 208.691,119.809 199.191 C 120.090 196.264,120.449 194.732,121.202 193.246 C 121.760 192.144,122.395 190.447,122.613 189.474 C 122.831 188.500,123.452 187.052,123.993 186.256 C 125.659 183.801,125.492 183.565,118.480 178.458 C 113.432 174.781,106.492 166.666,105.154 162.874 C 104.849 162.009,104.257 160.747,103.839 160.070 C 103.420 159.393,102.888 157.963,102.657 156.892 C 102.426 155.822,101.791 153.937,101.247 152.703 C 98.606 146.712,98.578 123.647,101.203 116.065 C 101.707 114.609,102.353 112.301,102.639 110.934 C 102.925 109.568,103.577 107.834,104.088 107.080 C 104.600 106.327,105.212 104.800,105.450 103.687 C 105.687 102.575,106.283 101.186,106.774 100.600 C 107.265 100.014,107.960 98.650,108.320 97.568 C 108.679 96.487,109.152 95.491,109.372 95.355 C 109.591 95.220,110.266 94.004,110.872 92.654 C 111.477 91.304,112.168 90.079,112.407 89.931 C 112.646 89.784,113.200 88.960,113.638 88.101 C 114.751 85.921,118.814 80.365,120.715 78.425 C 121.280 77.847,121.947 76.981,122.195 76.498 C 124.369 72.283,145.848 52.489,151.224 49.747 C 151.763 49.472,152.733 48.823,153.379 48.305 C 155.272 46.787,158.736 44.620,160.472 43.868 C 161.357 43.485,162.182 42.908,162.305 42.586 C 162.429 42.264,163.468 41.697,164.615 41.325 C 165.761 40.953,167.140 40.244,167.679 39.751 C 168.217 39.257,169.431 38.649,170.376 38.398 C 171.321 38.148,172.731 37.524,173.510 37.012 C 174.289 36.500,175.737 35.902,176.727 35.682 C 177.718 35.463,179.657 34.749,181.037 34.096 C 182.417 33.444,184.007 32.909,184.572 32.909 C 185.137 32.909,187.399 32.374,189.599 31.721 C 197.865 29.265,216.804 29.022,221.296 31.314 C 222.094 31.720,223.740 32.342,224.954 32.695 C 226.169 33.048,227.386 33.606,227.659 33.935 C 227.932 34.264,228.872 34.893,229.749 35.332 C 231.174 36.046,233.087 37.610,234.399 39.134 C 234.657 39.433,235.424 40.243,236.103 40.933 C 236.782 41.622,237.793 43.084,238.348 44.180 C 238.904 45.277,239.524 46.276,239.728 46.402 C 239.931 46.527,240.397 47.554,240.765 48.682 C 241.132 49.811,241.891 51.792,242.452 53.085 C 243.535 55.584,243.956 67.118,243.199 73.555 C 242.810 76.862,245.187 76.924,248.856 73.702 C 249.623 73.029,250.434 72.478,250.658 72.478 C 250.883 72.478,251.566 72.058,252.176 71.544 C 252.786 71.031,254.166 70.127,255.242 69.536 C 256.318 68.945,257.551 68.160,257.982 67.791 C 258.413 67.422,259.333 66.896,260.026 66.623 C 260.719 66.349,261.502 65.866,261.765 65.549 C 262.028 65.232,263.058 64.560,264.055 64.055 C 265.052 63.550,266.113 62.840,266.414 62.477 C 266.715 62.114,267.850 61.422,268.936 60.938 C 271.414 59.835,274.431 56.660,274.996 54.563 C 275.226 53.709,275.920 52.311,276.539 51.456 C 277.159 50.602,278.049 49.120,278.519 48.164 C 278.989 47.208,279.717 45.808,280.136 45.054 C 281.588 42.448,281.611 42.488,275.423 36.749 C 274.888 36.253,273.899 35.495,273.224 35.064 C 271.227 33.787,267.850 31.433,266.797 30.583 C 266.259 30.148,265.622 29.788,265.383 29.783 C 265.144 29.779,264.181 29.167,263.243 28.425 C 262.305 27.683,261.090 26.965,260.544 26.831 C 259.997 26.697,258.668 25.998,257.591 25.279 C 256.513 24.560,254.985 23.770,254.194 23.523 C 253.403 23.276,252.545 22.820,252.286 22.508 C 252.028 22.197,250.685 21.592,249.303 21.166 C 247.921 20.739,246.047 19.958,245.138 19.430 C 244.230 18.903,242.782 18.349,241.920 18.200 C 241.058 18.051,239.203 17.432,237.798 16.825 C 236.394 16.218,234.278 15.607,233.097 15.466 C 231.916 15.325,229.275 14.702,227.228 14.082 C 222.007 12.499,197.233 10.934,193.536 11.953 M205.485 33.950 C 204.838 34.026,202.987 34.267,201.371 34.485 C 199.755 34.703,196.993 35.045,195.234 35.245 C 193.151 35.482,191.373 35.954,190.140 36.596 C 189.099 37.139,187.277 37.787,186.092 38.036 C 184.907 38.286,183.217 38.908,182.337 39.420 C 181.457 39.932,179.927 40.595,178.937 40.893 C 177.948 41.190,176.640 41.785,176.032 42.214 C 175.424 42.643,174.045 43.465,172.968 44.039 C 170.904 45.140,169.026 46.371,167.119 47.872 C 166.487 48.369,165.403 49.128,164.709 49.559 C 164.014 49.990,162.415 51.128,161.155 52.089 C 159.895 53.049,158.622 54.018,158.327 54.243 C 156.340 55.758,145.481 66.456,141.626 70.697 C 137.496 75.239,137.404 75.346,136.155 77.007 C 135.517 77.856,134.762 78.789,134.477 79.081 C 134.193 79.373,133.615 80.289,133.193 81.117 C 132.770 81.945,132.187 82.764,131.896 82.937 C 131.605 83.110,131.042 83.781,130.646 84.427 C 130.249 85.073,129.567 86.005,129.131 86.498 C 128.152 87.604,126.507 90.392,125.151 93.242 C 124.588 94.427,123.797 95.752,123.394 96.186 C 122.992 96.619,122.369 97.677,122.011 98.536 C 121.653 99.395,121.004 100.599,120.569 101.211 C 120.134 101.824,119.448 103.384,119.045 104.679 C 118.642 105.974,117.963 107.524,117.536 108.123 C 117.109 108.723,116.558 110.160,116.311 111.316 C 116.065 112.472,115.441 114.228,114.926 115.218 C 114.410 116.207,113.741 118.499,113.439 120.311 C 113.137 122.122,112.523 124.648,112.075 125.924 C 110.074 131.616,109.885 152.480,111.792 157.160 C 112.375 158.593,113.121 160.794,113.449 162.052 C 113.776 163.310,114.379 164.695,114.788 165.130 C 115.196 165.565,115.768 166.486,116.058 167.176 C 117.082 169.610,123.086 176.098,125.444 177.317 C 127.097 178.172,128.979 177.243,130.359 174.890 C 130.953 173.877,131.922 172.542,132.511 171.924 C 133.100 171.305,133.853 170.273,134.186 169.631 C 134.518 168.988,134.924 168.462,135.087 168.462 C 135.251 168.462,135.719 167.889,136.127 167.189 C 136.535 166.489,137.452 165.211,138.163 164.349 C 138.874 163.487,140.172 161.900,141.046 160.823 C 143.141 158.240,147.089 153.828,149.167 151.746 C 151.389 149.521,151.475 147.810,149.461 145.910 C 148.707 145.199,148.090 144.476,148.090 144.304 C 148.090 144.133,147.492 143.019,146.761 141.829 C 145.514 139.802,144.794 137.210,143.977 131.807 C 143.657 129.690,145.102 122.745,146.133 121.450 C 146.561 120.911,147.250 119.853,147.664 119.099 C 150.760 113.461,158.481 110.408,165.524 112.036 C 171.368 113.387,172.800 122.649,167.901 127.422 C 164.458 130.778,163.934 131.035,160.251 131.178 C 155.060 131.379,152.941 129.433,152.526 124.081 C 152.227 120.239,151.247 119.374,151.230 122.939 C 151.226 123.928,150.879 124.548,149.755 125.579 L 148.286 126.925 148.295 131.141 C 148.303 134.993,148.397 135.524,149.372 137.277 C 149.960 138.332,150.441 139.390,150.441 139.627 C 150.441 139.865,151.391 141.087,152.551 142.344 L 154.662 144.630 156.222 143.645 C 157.529 142.820,162.310 138.403,167.505 133.221 C 168.163 132.565,168.851 132.027,169.034 132.027 C 169.217 132.027,170.009 131.366,170.794 130.558 C 172.488 128.814,174.582 126.992,177.657 124.584 C 178.896 123.614,180.492 122.292,181.204 121.645 C 181.916 120.999,183.229 119.941,184.121 119.295 C 185.012 118.648,186.606 117.414,187.662 116.552 C 188.718 115.690,190.493 114.280,191.606 113.418 C 192.719 112.556,194.270 111.315,195.052 110.660 C 195.834 110.004,196.964 109.256,197.562 108.998 C 198.161 108.739,198.756 108.254,198.884 107.920 C 199.012 107.586,199.768 106.980,200.564 106.574 C 201.360 106.168,202.252 105.546,202.547 105.191 C 202.841 104.836,203.799 104.183,204.675 103.738 C 205.551 103.294,206.837 102.470,207.531 101.906 C 211.679 98.542,215.519 95.786,217.392 94.831 C 218.254 94.391,219.101 93.788,219.274 93.492 C 219.447 93.195,220.294 92.595,221.156 92.159 C 222.018 91.723,223.053 91.002,223.456 90.556 C 223.859 90.110,224.786 89.548,225.516 89.308 C 226.245 89.067,227.023 88.532,227.244 88.119 C 227.465 87.706,228.390 86.991,229.298 86.530 C 230.207 86.068,231.413 85.319,231.978 84.863 C 232.543 84.408,233.529 83.751,234.169 83.404 C 235.579 82.637,237.569 78.630,238.186 75.316 C 239.455 68.494,238.998 53.776,237.432 50.997 C 236.986 50.206,236.195 48.657,235.674 47.554 C 234.446 44.953,228.873 39.341,226.461 38.275 C 225.482 37.843,224.050 37.072,223.279 36.562 C 222.389 35.974,220.599 35.417,218.382 35.037 C 210.794 33.739,208.724 33.564,205.485 33.950 M288.214 53.967 C 287.251 54.775,286.292 55.788,286.084 56.219 C 284.741 58.995,283.968 61.428,283.270 65.075 C 282.832 67.360,282.134 70.005,281.718 70.952 C 281.302 71.899,280.767 74.083,280.530 75.806 C 280.293 77.528,279.677 80.173,279.161 81.682 C 278.646 83.192,278.015 85.837,277.760 87.561 C 277.505 89.285,276.860 91.736,276.327 93.008 C 275.793 94.279,275.093 96.828,274.771 98.672 C 274.449 100.516,273.861 102.737,273.465 103.608 C 273.068 104.479,272.540 106.337,272.291 107.738 C 272.042 109.138,271.407 111.234,270.881 112.396 C 270.355 113.557,269.652 115.559,269.319 116.844 C 268.986 118.129,268.296 119.823,267.785 120.609 C 267.274 121.394,266.650 122.831,266.400 123.800 C 266.149 124.770,265.628 125.916,265.242 126.347 C 264.856 126.778,264.165 127.993,263.707 129.047 C 263.249 130.102,262.434 131.404,261.897 131.941 C 261.360 132.478,260.921 133.148,260.921 133.429 C 260.921 133.896,258.108 137.792,256.215 139.948 C 255.783 140.440,254.682 141.703,253.768 142.756 C 249.619 147.532,238.310 158.484,235.651 160.302 C 234.789 160.892,233.115 162.177,231.929 163.158 C 230.744 164.139,229.232 165.195,228.568 165.504 C 227.905 165.813,227.123 166.354,226.831 166.705 C 226.540 167.057,225.584 167.708,224.708 168.152 C 223.832 168.596,222.535 169.465,221.828 170.082 C 221.120 170.700,220.317 171.205,220.044 171.205 C 219.771 171.205,218.827 171.735,217.946 172.382 C 217.065 173.030,215.579 173.830,214.642 174.160 C 213.706 174.491,212.496 175.165,211.955 175.660 C 211.413 176.154,210.176 176.781,209.207 177.053 C 208.237 177.325,207.068 177.895,206.608 178.319 C 206.148 178.743,204.762 179.354,203.527 179.677 C 202.293 179.999,200.634 180.692,199.841 181.217 C 199.048 181.742,197.353 182.364,196.073 182.601 C 194.793 182.838,193.030 183.451,192.155 183.964 C 191.206 184.520,189.383 185.062,187.642 185.305 C 186.035 185.530,183.222 186.226,181.391 186.851 C 178.723 187.763,176.893 188.073,172.184 188.410 C 168.952 188.641,164.456 189.046,162.194 189.310 C 156.594 189.963,151.980 189.899,145.935 189.085 C 137.300 187.923,136.086 187.680,133.909 186.683 C 130.405 185.079,127.380 186.841,127.335 190.513 C 127.330 190.897,126.878 192.096,126.330 193.177 C 125.001 195.800,124.450 200.552,124.675 207.444 C 124.891 214.070,125.215 214.878,128.758 217.630 C 130.146 218.707,132.077 220.250,133.049 221.058 C 134.022 221.866,134.977 222.527,135.172 222.527 C 135.367 222.527,136.105 223.032,136.813 223.650 C 137.521 224.267,138.817 225.136,139.693 225.580 C 140.570 226.024,141.509 226.655,141.780 226.982 C 142.052 227.309,143.128 227.861,144.172 228.208 C 145.217 228.554,146.305 229.122,146.591 229.468 C 146.877 229.814,148.080 230.525,149.265 231.048 C 150.451 231.570,151.685 232.231,152.008 232.516 C 152.331 232.801,153.653 233.332,154.946 233.696 C 156.239 234.060,157.914 234.762,158.668 235.256 C 159.422 235.750,161.009 236.373,162.194 236.642 C 163.379 236.910,165.190 237.551,166.218 238.066 C 167.251 238.584,169.389 239.168,171.001 239.372 C 172.604 239.575,175.024 240.210,176.380 240.783 C 178.497 241.677,179.672 241.868,184.721 242.139 C 187.953 242.313,191.391 242.626,192.360 242.835 C 195.150 243.437,206.432 243.758,208.227 243.287 C 209.089 243.061,213.520 242.541,218.073 242.132 C 225.274 241.485,226.599 241.261,228.259 240.406 C 229.308 239.866,231.707 239.164,233.590 238.845 C 235.494 238.524,237.615 237.896,238.367 237.431 C 239.111 236.971,240.832 236.417,242.191 236.200 C 243.591 235.977,245.256 235.403,246.033 234.876 C 246.787 234.363,248.439 233.679,249.702 233.354 C 250.966 233.029,252.333 232.407,252.739 231.970 C 253.146 231.534,254.228 230.965,255.143 230.706 C 256.058 230.446,257.585 229.646,258.536 228.927 C 259.488 228.208,260.485 227.620,260.752 227.620 C 261.019 227.620,261.977 227.003,262.880 226.249 C 263.782 225.495,264.724 224.876,264.973 224.874 C 265.222 224.872,266.200 224.255,267.146 223.503 C 268.092 222.750,269.012 222.135,269.189 222.135 C 269.367 222.135,270.092 221.631,270.799 221.014 C 271.507 220.398,272.682 219.588,273.411 219.214 C 274.140 218.841,278.693 214.541,283.529 209.660 C 293.905 199.186,294.221 198.849,294.221 198.283 C 294.221 198.044,294.815 197.186,295.541 196.377 C 296.266 195.569,296.982 194.514,297.131 194.034 C 297.281 193.554,298.009 192.436,298.750 191.549 C 299.492 190.661,300.098 189.720,300.098 189.457 C 300.098 189.194,300.715 188.432,301.469 187.765 C 302.235 187.087,302.840 186.179,302.840 185.708 C 302.840 184.740,303.421 183.499,304.404 182.370 C 304.778 181.939,305.374 180.716,305.727 179.651 C 306.080 178.587,306.733 177.329,307.177 176.857 C 307.621 176.384,308.249 174.963,308.573 173.699 C 308.898 172.435,309.580 170.761,310.089 169.979 C 310.599 169.197,311.215 167.457,311.459 166.112 C 311.703 164.767,312.342 163.003,312.879 162.192 C 313.557 161.166,314.016 159.638,314.387 157.173 C 314.680 155.224,315.369 152.328,315.918 150.737 C 317.456 146.279,318.284 131.552,317.741 118.275 C 317.314 107.811,317.323 107.885,315.971 103.428 C 315.481 101.812,314.958 99.319,314.810 97.889 C 314.649 96.331,314.097 94.350,313.436 92.952 C 312.829 91.668,312.207 89.841,312.054 88.893 C 311.901 87.945,311.372 86.464,310.879 85.602 C 310.385 84.740,309.677 82.945,309.305 81.613 C 308.933 80.281,308.283 78.820,307.860 78.367 C 307.438 77.913,306.817 76.711,306.481 75.696 C 306.144 74.680,305.478 73.320,305.001 72.674 C 304.524 72.027,303.753 70.705,303.290 69.736 C 302.826 68.766,302.050 67.419,301.566 66.743 C 301.082 66.066,300.378 65.008,300.002 64.392 C 297.807 60.791,296.748 59.206,295.721 57.982 C 295.088 57.228,294.095 56.027,293.514 55.314 C 290.751 51.919,290.678 51.900,288.214 53.967 M265.382 67.895 C 263.804 69.121,262.921 69.695,259.503 71.711 C 258.574 72.259,257.409 73.088,256.914 73.553 C 256.418 74.019,255.384 74.662,254.616 74.983 C 253.847 75.304,252.980 75.854,252.688 76.206 C 252.397 76.557,251.518 77.172,250.735 77.571 C 249.952 77.970,249.069 78.588,248.774 78.944 C 248.479 79.300,247.433 80.021,246.450 80.546 C 241.767 83.048,239.132 86.145,238.174 90.271 C 237.920 91.366,237.219 93.144,236.616 94.221 C 236.013 95.299,235.395 96.854,235.243 97.677 C 235.091 98.501,234.555 99.663,234.053 100.259 C 233.551 100.856,232.773 102.325,232.324 103.525 C 231.875 104.725,231.240 105.930,230.913 106.201 C 230.585 106.473,230.068 107.292,229.763 108.021 C 229.459 108.750,228.676 109.994,228.023 110.786 C 227.370 111.578,226.836 112.433,226.836 112.687 C 226.836 112.941,226.219 113.887,225.465 114.789 C 224.711 115.692,224.094 116.549,224.094 116.695 C 224.094 116.940,223.428 117.817,219.513 122.734 C 215.640 127.596,202.813 139.764,198.896 142.291 C 197.995 142.872,196.577 143.886,195.746 144.544 C 194.915 145.201,193.995 145.739,193.703 145.739 C 193.410 145.739,192.568 146.269,191.831 146.917 C 191.093 147.564,189.724 148.364,188.787 148.694 C 187.851 149.025,186.641 149.587,186.098 149.944 C 185.556 150.301,183.702 150.985,181.978 151.464 C 180.255 151.943,177.786 152.720,176.494 153.190 C 172.858 154.512,163.770 154.223,160.553 152.683 C 155.682 150.351,152.873 152.259,144.636 163.500 C 144.136 164.181,143.474 164.881,143.164 165.055 C 142.854 165.228,142.246 166.022,141.814 166.818 C 141.382 167.615,140.151 169.324,139.079 170.617 C 138.007 171.910,136.794 173.585,136.382 174.339 C 135.971 175.093,135.192 176.186,134.652 176.767 C 131.819 179.816,133.006 182.282,137.723 183.143 C 139.438 183.457,141.713 183.986,142.777 184.319 C 147.860 185.908,164.600 185.910,167.690 184.321 C 168.234 184.041,170.702 183.532,173.174 183.190 C 176.254 182.764,178.265 182.260,179.561 181.590 C 180.601 181.053,182.534 180.332,183.856 179.990 C 185.177 179.648,186.970 178.954,187.840 178.449 C 188.710 177.945,190.096 177.408,190.919 177.258 C 191.743 177.107,192.904 176.573,193.501 176.071 C 194.097 175.569,195.583 174.785,196.803 174.329 C 198.023 173.872,199.021 173.338,199.021 173.141 C 199.021 172.944,200.034 172.245,201.273 171.587 C 203.751 170.272,205.365 169.206,208.031 167.121 C 210.953 164.837,213.351 163.098,213.805 162.935 C 214.461 162.700,219.834 157.725,223.840 153.645 C 229.355 148.027,229.971 147.359,229.971 146.988 C 229.971 146.798,230.544 146.028,231.244 145.276 C 233.374 142.988,238.695 135.928,240.450 133.062 C 240.827 132.445,241.532 131.387,242.016 130.711 C 242.500 130.034,243.317 128.599,243.831 127.522 C 244.346 126.445,245.133 125.233,245.581 124.830 C 246.029 124.427,246.600 123.457,246.851 122.675 C 247.101 121.893,247.747 120.663,248.287 119.941 C 248.827 119.218,249.512 117.817,249.810 116.827 C 250.108 115.836,250.700 114.656,251.125 114.203 C 251.550 113.751,252.255 112.341,252.693 111.070 C 253.130 109.799,253.738 108.377,254.043 107.911 C 254.349 107.445,254.888 106.025,255.243 104.756 C 255.597 103.487,256.383 101.479,256.990 100.294 C 257.597 99.109,258.219 97.522,258.371 96.768 C 258.523 96.014,259.083 94.603,259.616 93.634 C 260.149 92.664,260.848 90.725,261.170 89.324 C 261.492 87.924,262.093 86.201,262.505 85.497 C 262.917 84.792,263.537 83.118,263.883 81.775 C 264.229 80.432,264.834 78.805,265.227 78.159 C 265.621 77.512,266.340 75.661,266.827 74.045 C 267.313 72.429,268.048 70.648,268.461 70.086 C 270.515 67.292,268.240 65.672,265.382 67.895 M230.167 91.283 C 229.776 91.714,229.237 92.067,228.968 92.067 C 228.698 92.067,227.739 92.684,226.836 93.438 C 225.934 94.192,225.052 94.809,224.878 94.809 C 224.703 94.809,223.846 95.382,222.973 96.082 C 221.061 97.617,218.535 99.424,216.812 100.490 C 216.116 100.921,214.252 102.246,212.670 103.436 C 211.088 104.625,209.321 105.900,208.742 106.268 C 208.164 106.637,207.246 107.383,206.703 107.926 C 206.161 108.469,205.471 108.913,205.172 108.913 C 204.872 108.913,204.291 109.287,203.881 109.743 C 203.470 110.200,202.253 111.168,201.175 111.895 C 200.098 112.621,198.490 113.790,197.601 114.492 C 196.713 115.194,195.170 116.376,194.173 117.118 C 193.176 117.859,192.360 118.594,192.360 118.751 C 192.360 118.907,191.699 119.434,190.891 119.922 C 190.083 120.409,188.805 121.314,188.051 121.932 C 187.297 122.550,185.798 123.743,184.721 124.583 C 183.643 125.424,182.145 126.656,181.391 127.321 C 179.871 128.661,175.108 132.629,172.380 134.828 C 171.410 135.609,169.824 137.034,168.854 137.994 C 167.884 138.953,166.033 140.662,164.740 141.790 C 162.422 143.813,159.452 147.120,159.452 147.678 C 159.452 150.067,176.575 149.923,181.397 147.494 C 182.371 147.004,183.957 146.393,184.923 146.136 C 185.889 145.879,187.032 145.344,187.463 144.947 C 187.894 144.550,189.111 143.856,190.167 143.404 C 191.223 142.952,192.673 142.103,193.389 141.516 C 194.105 140.930,195.491 139.833,196.469 139.079 C 205.090 132.432,208.377 129.253,215.755 120.424 C 217.217 118.674,218.722 116.735,219.099 116.114 C 219.477 115.493,220.182 114.432,220.666 113.755 C 221.578 112.483,222.409 111.162,224.099 108.301 C 224.640 107.384,225.384 106.301,225.753 105.893 C 226.122 105.486,226.686 104.409,227.007 103.500 C 227.327 102.592,228.020 101.278,228.546 100.581 C 229.072 99.885,229.682 98.651,229.902 97.840 C 230.122 97.028,230.757 95.825,231.312 95.165 C 232.400 93.871,232.537 93.076,231.939 91.504 C 231.479 90.295,231.103 90.248,230.167 91.283 M346.068 304.797 C 344.526 304.966,342.410 305.379,341.367 305.715 C 340.324 306.050,338.356 306.536,336.994 306.794 C 335.631 307.052,333.872 307.700,333.084 308.235 C 332.297 308.769,330.968 309.448,330.131 309.744 C 329.294 310.039,328.006 310.810,327.268 311.458 C 326.531 312.105,325.760 312.635,325.556 312.635 C 324.812 312.635,318.010 319.893,316.885 321.886 C 316.250 323.012,315.474 324.145,315.162 324.404 C 314.849 324.663,314.594 325.106,314.594 325.387 C 314.594 325.668,313.974 327.088,313.216 328.541 C 309.226 336.195,309.238 353.928,313.238 361.467 C 313.984 362.872,314.594 364.244,314.594 364.516 C 314.594 364.788,314.964 365.346,315.417 365.756 C 315.870 366.166,316.505 367.031,316.827 367.678 C 317.150 368.325,317.919 369.383,318.536 370.029 C 322.746 374.436,324.058 375.677,324.730 375.890 C 325.150 376.023,325.767 376.551,326.102 377.062 C 326.437 377.573,327.378 378.202,328.194 378.460 C 329.009 378.717,330.336 379.373,331.142 379.916 C 331.948 380.460,333.534 381.133,334.668 381.412 C 335.801 381.691,337.963 382.303,339.471 382.773 C 343.266 383.954,352.198 384.279,355.338 383.351 C 356.523 383.001,359.138 382.302,361.148 381.797 C 363.272 381.265,365.164 380.541,365.665 380.071 C 366.138 379.627,367.290 378.993,368.224 378.663 C 369.158 378.334,370.513 377.579,371.236 376.985 C 376.072 373.013,377.277 371.962,377.277 371.715 C 377.277 371.562,378.078 370.591,379.057 369.558 C 380.037 368.524,381.169 367.320,381.573 366.882 C 381.978 366.444,382.618 365.298,382.995 364.336 C 383.373 363.373,384.079 362.103,384.564 361.512 C 385.050 360.922,385.650 359.423,385.897 358.182 C 386.145 356.941,386.776 354.659,387.299 353.111 C 389.048 347.941,388.938 337.307,387.094 333.247 C 386.691 332.361,386.236 330.792,386.082 329.761 C 385.929 328.730,385.357 327.231,384.811 326.431 C 384.265 325.630,383.533 324.340,383.183 323.563 C 381.420 319.650,372.497 310.912,369.004 309.680 C 368.072 309.351,366.946 308.741,366.503 308.325 C 366.059 307.908,364.468 307.299,362.966 306.970 C 361.464 306.642,359.001 306.042,357.493 305.636 C 354.070 304.716,349.723 304.397,346.068 304.797 M33.338 305.620 C 32.389 306.041,30.869 306.573,29.961 306.801 C 29.052 307.030,27.743 307.734,27.052 308.365 C 26.361 308.996,25.286 309.775,24.663 310.098 C 24.040 310.420,23.319 311.079,23.063 311.561 C 22.806 312.044,22.072 313.064,21.432 313.829 C 20.342 315.131,18.391 320.243,17.828 323.273 C 16.772 328.949,23.167 339.939,28.520 341.649 C 29.318 341.904,30.419 342.530,30.968 343.041 C 31.516 343.552,32.838 344.259,33.906 344.614 C 34.974 344.968,36.207 345.583,36.648 345.980 C 37.088 346.378,38.057 346.907,38.802 347.157 C 39.547 347.406,40.750 348.052,41.476 348.591 C 42.202 349.130,43.690 349.912,44.783 350.327 C 45.876 350.742,47.355 351.555,48.070 352.133 C 53.384 356.431,53.742 356.849,55.844 361.208 C 57.034 363.676,56.489 370.988,55.074 371.531 C 54.773 371.646,54.302 372.359,54.029 373.114 C 53.716 373.979,53.052 374.746,52.232 375.188 C 51.516 375.573,50.930 376.020,50.930 376.181 C 50.930 378.073,41.843 379.310,36.775 378.108 C 32.841 377.175,26.249 372.698,26.249 370.959 C 26.249 370.786,25.745 370.065,25.130 369.357 C 24.515 368.650,23.712 367.159,23.346 366.044 C 22.980 364.929,22.435 363.814,22.135 363.565 C 21.836 363.317,21.391 362.152,21.147 360.978 C 20.482 357.774,18.064 356.696,17.039 359.147 C 16.413 360.643,16.844 380.151,17.519 380.897 C 18.805 382.319,20.269 381.448,21.137 378.746 C 21.396 377.938,21.679 377.277,21.765 377.277 C 22.531 377.277,27.347 379.431,28.217 380.163 C 28.827 380.677,30.000 381.224,30.824 381.378 C 31.647 381.532,33.378 382.105,34.671 382.651 C 37.684 383.923,44.148 384.317,47.209 383.416 C 55.145 381.079,61.747 376.416,63.110 372.184 C 63.353 371.430,63.991 370.160,64.529 369.362 C 66.429 366.544,66.527 354.669,64.672 352.160 C 64.200 351.522,63.571 350.311,63.274 349.470 C 62.803 348.134,59.135 343.976,58.428 343.976 C 58.286 343.976,57.466 343.363,56.607 342.613 C 55.747 341.863,54.843 341.246,54.598 341.242 C 54.353 341.237,53.295 340.645,52.248 339.925 C 51.200 339.205,49.638 338.385,48.776 338.102 C 47.914 337.820,46.680 337.197,46.033 336.719 C 45.387 336.240,43.946 335.551,42.831 335.189 C 41.717 334.827,40.578 334.258,40.300 333.923 C 40.023 333.589,38.869 332.906,37.737 332.405 C 36.604 331.904,35.285 331.129,34.807 330.683 C 34.328 330.238,33.799 329.873,33.631 329.873 C 31.453 329.873,26.815 321.718,27.299 318.738 C 27.871 315.217,30.795 311.483,33.607 310.684 C 44.419 307.613,54.070 312.406,56.633 322.120 C 57.660 326.014,60.432 326.675,61.189 323.206 C 61.795 320.429,60.776 308.214,59.873 307.444 C 58.714 306.453,58.066 306.588,56.728 308.099 L 55.541 309.440 53.997 308.321 C 53.147 307.706,51.889 307.087,51.202 306.946 C 50.514 306.806,48.576 306.265,46.895 305.745 C 42.841 304.491,36.025 304.428,33.338 305.620 M75.224 307.263 C 72.818 308.481,73.898 309.998,77.786 310.863 C 84.202 312.291,84.231 312.442,84.231 344.067 C 84.231 374.642,84.052 375.796,79.077 377.224 C 74.201 378.624,74.241 378.604,74.241 379.616 C 74.241 381.473,75.069 381.575,90.206 381.581 C 105.005 381.587,105.779 381.491,105.779 379.656 C 105.779 378.929,103.683 377.669,102.472 377.669 C 99.222 377.669,97.255 375.488,96.541 371.092 C 94.910 361.045,95.936 349.425,98.606 347.692 C 99.211 347.299,99.937 346.655,100.218 346.260 C 101.451 344.534,102.791 345.329,106.562 350.022 C 107.532 351.229,108.810 352.741,109.403 353.382 C 109.995 354.023,110.480 354.714,110.480 354.919 C 110.480 355.123,111.141 356.073,111.949 357.029 C 112.757 357.986,114.035 359.593,114.789 360.601 C 115.544 361.608,116.778 363.205,117.532 364.149 C 118.940 365.910,120.133 367.612,121.347 369.585 C 121.727 370.202,122.610 371.409,123.310 372.267 C 125.688 375.177,125.013 377.227,121.475 377.838 C 119.023 378.261,118.191 379.504,119.491 380.803 C 120.512 381.824,146.265 382.033,148.643 381.039 C 151.512 379.840,150.579 378.531,146.142 377.529 C 144.626 377.186,142.901 376.574,142.310 376.168 C 141.718 375.763,140.764 375.146,140.189 374.799 C 139.190 374.195,135.240 369.791,132.498 366.225 C 129.545 362.384,126.292 357.914,125.500 356.608 C 125.034 355.840,124.371 355.054,124.028 354.862 C 123.684 354.670,123.070 353.861,122.664 353.064 C 122.257 352.268,121.535 351.263,121.058 350.833 C 120.581 350.402,119.865 349.410,119.466 348.628 C 119.067 347.847,118.477 347.106,118.154 346.982 C 117.831 346.858,117.199 346.035,116.748 345.152 C 116.298 344.269,115.680 343.451,115.374 343.334 C 115.069 343.216,114.711 342.780,114.579 342.363 C 114.446 341.946,113.646 340.805,112.801 339.829 C 110.675 337.373,110.827 336.169,113.614 333.377 C 114.153 332.837,115.739 331.095,117.140 329.504 C 121.537 324.511,122.110 323.895,126.089 319.882 C 130.445 315.490,131.875 314.323,134.158 313.299 C 135.026 312.910,136.011 312.342,136.349 312.036 C 136.687 311.730,138.145 311.233,139.589 310.930 C 142.461 310.328,143.389 309.781,143.389 308.691 C 143.389 306.891,142.432 306.758,129.481 306.758 C 119.103 306.758,117.186 306.848,116.444 307.368 C 114.615 308.649,115.783 310.314,118.896 310.862 C 122.482 311.494,123.207 314.676,120.462 317.728 C 119.977 318.266,119.291 319.280,118.938 319.980 C 118.584 320.681,118.157 321.254,117.988 321.254 C 117.819 321.254,116.656 322.444,115.404 323.898 C 108.302 332.150,98.100 342.445,97.320 342.146 C 96.241 341.732,95.984 339.410,95.987 330.108 C 95.992 314.328,96.913 311.570,102.428 310.814 C 105.361 310.412,106.462 309.008,104.995 307.542 C 104.019 306.566,77.100 306.314,75.224 307.263 M153.432 307.570 C 151.917 308.761,152.789 310.673,154.848 310.678 C 158.317 310.687,160.843 312.674,161.426 315.852 C 162.031 319.152,161.767 373.276,161.140 374.367 C 160.390 375.673,157.848 377.211,155.671 377.677 C 152.719 378.309,151.854 379.395,153.307 380.644 L 154.402 381.587 168.112 381.587 C 182.785 381.587,184.133 381.422,184.133 379.632 C 184.133 378.690,183.450 378.320,180.215 377.511 C 174.859 376.171,173.946 373.725,173.950 360.714 L 173.952 350.833 175.866 348.874 C 178.868 345.802,179.618 345.152,180.166 345.152 C 180.782 345.152,184.096 348.676,184.118 349.354 C 184.126 349.619,184.547 350.106,185.052 350.437 C 185.558 350.768,186.156 351.446,186.383 351.943 C 186.609 352.439,187.474 353.669,188.304 354.674 C 189.134 355.680,190.431 357.301,191.185 358.276 C 191.939 359.252,193.173 360.829,193.928 361.782 C 195.413 363.659,196.657 365.448,197.743 367.271 C 198.122 367.908,198.925 368.942,199.525 369.568 C 200.126 370.195,200.961 371.380,201.381 372.203 C 201.800 373.025,202.322 373.809,202.541 373.944 C 202.759 374.079,202.938 374.774,202.938 375.490 C 202.938 376.888,202.661 377.074,199.165 378.019 C 196.852 378.644,196.299 379.430,197.398 380.531 C 198.247 381.379,198.442 381.392,212.117 381.503 L 225.976 381.615 227.092 380.621 L 228.208 379.628 227.108 378.648 C 226.474 378.083,225.530 377.669,224.877 377.669 C 222.141 377.669,213.124 371.342,213.124 369.423 C 213.124 369.123,211.903 367.554,208.834 363.909 C 208.177 363.129,207.640 362.332,207.640 362.139 C 207.640 361.822,207.041 361.030,203.385 356.513 C 202.775 355.759,201.975 354.560,201.607 353.849 C 201.239 353.137,200.677 352.455,200.357 352.332 C 200.037 352.209,199.490 351.557,199.142 350.883 C 198.522 349.684,197.578 348.436,194.613 344.899 C 193.805 343.934,193.144 342.897,193.144 342.593 C 193.144 342.290,192.617 341.651,191.973 341.175 C 191.328 340.699,190.690 339.944,190.555 339.498 C 190.420 339.052,190.035 338.376,189.700 337.994 C 188.862 337.040,189.918 335.204,193.428 331.518 C 194.888 329.985,197.228 327.453,198.629 325.891 C 204.765 319.049,209.448 314.762,212.510 313.185 C 213.387 312.734,214.670 312.063,215.362 311.695 C 216.054 311.326,217.539 310.880,218.663 310.702 C 221.525 310.250,222.421 309.003,220.944 307.526 C 219.655 306.237,195.182 306.504,193.865 307.822 C 192.683 309.004,193.616 310.068,196.347 310.654 C 200.813 311.612,201.843 313.603,199.355 316.468 C 198.740 317.176,198.237 317.914,198.237 318.109 C 198.237 318.555,194.143 323.588,191.185 326.781 C 181.244 337.509,178.063 340.720,176.659 341.446 C 176.029 341.771,175.514 342.210,175.514 342.419 C 175.514 342.629,175.162 342.801,174.731 342.801 C 173.963 342.801,173.947 342.542,173.953 330.167 L 173.958 317.532 175.557 314.594 C 176.436 312.977,177.202 311.607,177.258 311.548 C 177.315 311.489,178.659 311.170,180.245 310.839 C 184.364 309.980,185.428 308.623,182.977 307.356 C 180.920 306.292,154.816 306.481,153.432 307.570 M225.759 307.537 C 223.593 308.858,224.513 309.842,228.982 310.983 C 231.551 311.638,231.652 311.713,233.046 313.971 L 234.476 316.286 234.718 340.024 C 234.968 364.549,235.022 365.316,236.724 368.296 C 237.268 369.249,237.824 370.509,237.960 371.096 C 238.096 371.682,238.641 372.652,239.172 373.250 C 239.702 373.849,240.881 375.190,241.791 376.230 C 242.701 377.270,243.984 378.397,244.642 378.734 C 245.299 379.071,246.316 379.746,246.901 380.234 C 247.486 380.722,248.720 381.247,249.644 381.400 C 250.567 381.553,252.468 382.115,253.869 382.649 C 257.286 383.952,265.195 384.333,269.344 383.395 C 274.072 382.325,278.689 380.808,279.517 380.053 C 279.955 379.653,280.941 378.998,281.707 378.596 C 284.729 377.011,289.157 370.704,289.921 366.895 C 290.181 365.602,290.648 364.048,290.960 363.440 C 292.416 360.604,292.704 356.785,292.986 336.533 L 293.261 316.748 294.411 314.656 C 295.907 311.932,296.846 311.241,299.749 310.730 C 303.319 310.101,304.416 308.453,302.057 307.263 C 300.499 306.478,280.858 306.558,279.315 307.356 C 276.812 308.650,278.122 309.987,283.003 311.121 L 285.300 311.655 286.725 314.398 L 288.149 317.140 288.149 336.533 C 288.149 355.310,288.122 356.013,287.301 358.668 C 286.835 360.176,286.249 362.468,285.999 363.761 C 285.725 365.177,285.027 366.891,284.243 368.071 C 283.528 369.148,282.824 370.426,282.679 370.911 C 282.534 371.396,282.265 371.792,282.082 371.792 C 281.898 371.792,281.171 372.404,280.465 373.152 C 279.760 373.901,277.674 375.267,275.830 376.189 L 272.478 377.865 266.014 377.865 C 259.966 377.865,259.461 377.808,258.178 376.979 C 257.424 376.492,255.971 375.708,254.948 375.237 C 253.926 374.766,252.990 374.068,252.868 373.685 C 252.747 373.302,252.198 372.635,251.650 372.204 C 247.213 368.714,246.300 362.235,246.543 335.945 C 246.762 312.292,246.922 311.599,252.346 310.874 C 255.600 310.438,256.882 308.717,254.957 307.368 C 253.461 306.320,227.508 306.471,225.759 307.537 M354.327 309.895 C 360.885 311.410,365.949 314.772,368.155 319.076 C 368.492 319.735,369.164 320.749,369.648 321.329 C 370.132 321.909,370.749 323.319,371.020 324.463 C 371.291 325.607,371.923 327.336,372.425 328.306 C 374.740 332.772,374.721 354.250,372.398 359.615 C 371.877 360.818,371.177 362.793,370.842 364.004 C 370.507 365.214,369.954 366.437,369.613 366.720 C 369.272 367.003,368.650 367.906,368.232 368.726 C 365.191 374.686,356.808 379.252,348.947 379.229 C 345.750 379.220,338.814 377.587,337.427 376.517 C 333.726 373.664,332.532 372.588,331.370 371.061 C 328.914 367.831,326.368 363.065,326.355 361.669 C 326.351 361.165,325.775 359.137,325.076 357.164 L 323.805 353.575 323.819 344.172 C 323.832 335.293,323.883 334.639,324.741 332.419 C 325.241 331.126,325.917 328.923,326.243 327.522 C 326.570 326.121,327.265 324.402,327.788 323.701 C 328.311 323.000,328.933 321.854,329.171 321.155 C 329.790 319.332,335.309 313.056,336.312 313.034 C 336.513 313.030,337.083 312.646,337.579 312.181 C 338.074 311.715,339.672 311.021,341.130 310.637 C 342.588 310.253,344.662 309.680,345.739 309.363 C 348.446 308.567,348.624 308.578,354.327 309.895 " stroke="none" fill="#292b2b" fill-rule="evenodd"></path></g></svg>