<?xml version="1.0" standalone="no"?>
<!DOCTYPE svg PUBLIC "-//W3C//DTD SVG 20010904//EN"
 "http://www.w3.org/TR/2001/REC-SVG-20010904/DTD/svg10.dtd">
<svg version="1.0" xmlns="http://www.w3.org/2000/svg"
 width="860.000000pt" height="860.000000pt" viewBox="0 0 860.000000 860.000000"
 preserveAspectRatio="xMidYMid meet">

<g transform="translate(0.000000,860.000000) scale(0.100000,-0.100000)"
fill="#000000" stroke="none">
<path d="M4331 7260 c-23 -5 -28 -20 -71 -203 -25 -108 -48 -199 -51 -201 -3
-3 -41 79 -86 182 -77 177 -83 187 -109 187 -27 0 -27 -1 -73 -197 -25 -108
-48 -199 -51 -202 -3 -2 -39 80 -81 182 l-76 187 -44 0 c-34 0 -43 -4 -41 -15
2 -8 49 -122 105 -252 l102 -238 32 0 c37 0 28 -23 90 237 21 90 40 163 43
163 3 0 42 -83 85 -185 l80 -186 35 6 c19 4 36 8 38 10 3 3 122 514 122 526 0
7 -18 7 -49 -1z"/>
<path d="M4612 7198 c-57 -96 -252 -435 -257 -450 -5 -14 -2 -18 13 -18 11 0
27 -2 34 -5 10 -4 31 24 67 90 l54 96 61 -7 c99 -11 97 -9 126 -120 l27 -99
46 -5 c32 -4 47 -2 47 6 0 10 -54 194 -131 447 -34 109 -52 123 -87 65z m27
-135 c5 -21 13 -56 17 -77 l7 -39 -52 5 c-28 3 -54 7 -56 10 -5 4 63 138 70
138 2 0 9 -17 14 -37z"/>
<path d="M3530 7145 c-32 -10 -42 -24 -106 -149 -39 -76 -74 -135 -76 -130 -3
5 -18 47 -33 94 -15 47 -31 89 -35 94 -11 12 -82 -13 -77 -28 2 -6 39 -118 81
-249 62 -193 80 -238 93 -233 8 3 26 9 39 12 13 3 24 9 24 13 0 3 -16 55 -35
115 -19 60 -34 110 -32 112 1 1 63 -36 137 -82 139 -87 137 -87 205 -60 29 12
29 12 -128 105 -86 51 -157 97 -157 102 0 5 32 72 71 149 39 78 70 142 68 144
-2 2 -20 -2 -39 -9z"/>
<path d="M4931 6918 c-45 -133 -78 -245 -74 -249 5 -4 18 -10 30 -13 20 -6 25
5 78 166 32 95 61 176 64 181 4 4 56 -101 116 -233 96 -211 126 -262 142 -246
2 2 42 114 88 249 l84 245 -30 11 c-35 12 -25 31 -95 -181 -27 -82 -51 -148
-54 -148 -3 0 -50 93 -104 208 -114 241 -120 252 -145 252 -15 0 -33 -42 -100
-242z"/>
<path d="M2895 6894 c-24 -18 -30 -4 94 -198 78 -122 81 -128 54 -121 -15 4
-128 31 -251 61 -189 46 -226 52 -242 41 -17 -12 -8 -28 121 -232 77 -122 145
-219 152 -217 6 2 18 10 26 17 12 12 0 37 -87 174 -56 89 -98 161 -94 161 4 0
119 -29 255 -65 232 -59 277 -67 277 -44 0 13 -271 439 -279 439 -3 0 -15 -7
-26 -16z"/>
<path d="M5683 6712 c-50 -75 -99 -152 -108 -170 -21 -44 -21 -111 0 -156 31
-64 123 -131 200 -143 96 -16 148 25 281 219 90 131 95 142 78 155 -10 7 -23
13 -29 13 -6 0 -49 -55 -94 -122 -122 -179 -153 -208 -224 -208 -45 0 -123 51
-144 94 -25 53 -7 95 108 264 l99 147 -27 22 c-16 13 -32 23 -38 23 -5 0 -51
-62 -102 -138z"/>
<path d="M2377 6542 c-9 -10 -17 -22 -17 -26 0 -4 53 -62 118 -129 66 -67 127
-137 137 -156 55 -108 -82 -254 -188 -200 -12 6 -82 70 -154 142 l-132 131
-31 -29 -30 -29 117 -119 c161 -162 182 -177 253 -177 44 0 65 6 101 28 97 62
147 146 135 228 -8 62 -38 103 -173 237 -115 113 -120 117 -136 99z"/>
<path d="M6105 6300 c-99 -93 -180 -177 -180 -186 0 -9 8 -22 17 -27 14 -9 35
6 123 89 58 54 122 112 142 128 l35 30 -6 -80 c-29 -372 -32 -452 -18 -466 11
-11 89 57 322 279 l75 72 -22 22 -22 22 -137 -129 -136 -129 5 60 c3 33 9 130
12 215 3 85 8 175 11 198 5 44 -7 73 -30 71 -6 0 -92 -76 -191 -169z"/>
<path d="M4135 6293 c-96 -11 -249 -38 -331 -59 -761 -198 -1348 -868 -1448
-1654 -14 -110 -15 -385 -1 -470 3 -19 10 -64 16 -100 29 -183 92 -377 184
-565 98 -202 218 -367 393 -538 100 -99 98 -100 202 108 47 94 103 200 124
235 254 415 575 691 1002 861 90 35 93 37 75 48 -33 20 -309 -28 -457 -80
-179 -62 -372 -172 -529 -299 -88 -72 -250 -239 -294 -304 l-34 -48 -54 83
c-104 160 -189 372 -230 574 -28 138 -25 481 6 624 40 190 130 434 165 447 8
3 122 -19 253 -49 131 -30 240 -53 242 -52 1 2 -60 92 -138 199 -78 108 -141
202 -141 209 0 20 101 128 188 200 212 176 461 298 738 359 84 19 130 22 309
22 236 1 311 -10 499 -71 163 -53 386 -161 359 -175 -4 -3 -33 -5 -63 -6 -231
-8 -487 -135 -625 -310 -134 -170 -190 -377 -164 -607 14 -117 35 -187 95
-310 72 -150 125 -216 364 -460 221 -226 285 -305 348 -430 118 -234 129 -445
35 -670 -66 -157 -196 -296 -347 -370 -368 -182 -802 -95 -1141 226 l-73 69
-38 -57 c-55 -83 -144 -254 -144 -278 0 -45 277 -181 495 -244 305 -87 648
-78 923 25 438 165 732 563 741 1004 8 335 -128 612 -439 897 -215 198 -328
341 -389 494 -42 107 -55 183 -48 302 13 257 163 452 402 523 96 29 273 24
400 -11 125 -33 163 -34 187 -5 40 50 13 98 -121 216 -308 274 -700 448 -1111
494 -85 10 -307 11 -385 3z"/>
<path d="M1992 6143 l-19 -28 58 -124 59 -124 -67 7 c-38 3 -100 9 -138 12
l-71 7 -27 -41 c-29 -45 -28 -48 23 -50 19 -1 95 -4 168 -8 l132 -6 83 -57
c45 -32 87 -60 94 -64 14 -9 60 62 47 72 -5 3 -44 30 -87 59 -42 29 -83 63
-91 75 -7 12 -39 84 -71 160 -32 75 -62 137 -66 137 -4 0 -16 -12 -27 -27z"/>
<path d="M6492 5834 l-212 -145 22 -32 c12 -18 23 -34 24 -36 3 -4 401 264
423 284 11 11 10 18 -8 44 -12 17 -25 31 -29 30 -4 0 -103 -65 -220 -145z"/>
<path d="M6627 5650 c-97 -121 -177 -226 -177 -233 0 -23 26 -38 56 -33 16 2
74 7 129 11 55 3 116 8 135 10 19 2 85 7 145 10 61 4 111 9 113 10 2 2 -4 18
-13 35 l-17 32 -86 -6 c-48 -4 -145 -13 -217 -21 -71 -7 -131 -13 -132 -12 -1
2 44 54 99 117 55 63 120 138 145 167 l45 52 -24 40 -24 40 -177 -219z"/>
<path d="M1722 5734 l-17 -36 52 -149 c29 -82 50 -149 47 -149 -2 0 -45 20
-94 45 -49 25 -93 45 -98 45 -5 0 -16 -16 -25 -35 l-17 -35 230 -115 c126 -63
232 -115 235 -115 6 0 35 57 35 70 0 6 -47 34 -105 61 -58 28 -105 52 -105 54
0 2 70 20 156 40 l155 38 25 48 c13 27 22 49 19 49 -2 0 -78 -20 -168 -45 -90
-25 -170 -45 -178 -45 -10 0 -33 53 -68 155 -29 85 -55 155 -57 155 -3 0 -12
-16 -22 -36z"/>
<path d="M6940 5285 c-58 -18 -165 -52 -237 -75 -73 -23 -133 -46 -133 -52 0
-6 18 -68 40 -139 l40 -128 30 11 c17 5 30 11 30 11 0 1 -14 45 -30 97 -16 52
-28 94 -27 95 1 0 36 11 77 24 41 13 80 26 86 28 7 3 23 -29 39 -79 15 -46 29
-85 31 -86 7 -9 44 11 44 23 0 8 -11 47 -23 88 l-24 74 79 26 c91 29 81 36
118 -86 21 -69 26 -77 44 -71 12 4 22 7 23 8 7 6 -83 266 -91 266 -6 -1 -58
-16 -116 -35z"/>
<path d="M1475 5093 c-35 -52 -65 -154 -65 -222 0 -159 99 -258 267 -269 64
-4 79 -1 128 23 65 32 107 83 131 159 16 52 32 256 20 256 -3 0 -49 9 -102 21
-53 11 -98 18 -101 15 -3 -3 -6 -22 -7 -42 l-1 -37 60 -13 c33 -8 70 -16 83
-19 18 -4 22 -12 22 -43 0 -52 -25 -133 -52 -167 -88 -112 -343 -65 -389 72
-24 73 13 192 76 241 l24 19 -23 22 c-31 29 -41 27 -71 -16z"/>
<path d="M6975 4854 c-99 -14 -207 -28 -240 -32 l-60 -7 3 -40 c2 -22 6 -42 8
-44 1 -2 54 4 116 13 62 9 117 16 121 16 5 0 -35 -51 -89 -112 -53 -62 -103
-120 -109 -128 -8 -10 -10 -31 -6 -60 l6 -44 110 126 c61 69 112 121 114 114
34 -106 120 -151 207 -110 24 11 38 28 50 59 14 39 15 55 4 147 -7 57 -13 109
-13 116 0 15 -3 15 -222 -14z m187 -91 c5 -90 2 -116 -17 -130 -31 -22 -63
-26 -94 -13 -32 13 -49 44 -58 105 l-5 43 58 7 c33 4 64 8 69 10 31 11 45 4
47 -22z"/>
<path d="M1428 4482 l-78 -3 0 -31 0 -30 186 5 187 5 -182 -182 c-129 -129
-181 -188 -181 -204 l0 -23 193 2 c105 2 222 5 260 7 67 4 67 4 67 34 l0 29
-192 -5 -193 -6 188 185 c126 124 187 191 187 206 0 21 -2 21 -182 17 -101 -1
-218 -4 -260 -6z"/>
<path d="M6762 4403 c-43 -62 -54 -96 -53 -161 2 -119 58 -192 149 -192 79 0
122 37 172 146 15 33 38 70 50 82 41 38 100 25 118 -26 14 -40 4 -77 -30 -114
-16 -17 -27 -31 -26 -32 2 -1 16 -10 32 -20 32 -20 34 -19 66 49 61 128 -38
280 -159 245 -67 -19 -75 -29 -141 -173 -37 -79 -101 -97 -156 -42 -49 49 -19
162 55 212 l34 23 -36 15 c-48 20 -53 19 -75 -12z"/>
<path d="M6695 3946 c-2 -6 -6 -25 -9 -42 l-5 -31 256 -42 c278 -45 276 -45
271 14 l-3 30 -253 41 c-169 27 -255 37 -257 30z"/>
<path d="M1552 3878 c-162 -39 -172 -43 -166 -62 3 -12 10 -25 14 -29 4 -5 76
8 161 28 170 40 252 43 288 11 31 -28 53 -84 54 -139 0 -45 -3 -53 -35 -82
-31 -29 -56 -38 -217 -76 l-182 -44 6 -35 c4 -19 10 -38 13 -41 12 -12 334 71
384 98 63 34 88 85 87 174 -1 106 -39 177 -113 214 -28 14 -66 25 -85 24 -20
0 -114 -19 -209 -41z"/>
<path d="M7123 3628 c-17 -61 -23 -72 -39 -70 -15 3 -321 88 -426 118 -13 4
-19 -4 -27 -33 -6 -20 -7 -40 -3 -44 4 -3 84 -27 177 -53 94 -26 193 -54 221
-62 l52 -15 -21 -77 c-11 -42 -21 -78 -22 -79 -1 -2 -69 -12 -152 -24 l-151
-21 -100 45 -100 45 -18 -39 c-9 -22 -15 -41 -13 -42 2 -2 45 -21 94 -42 50
-21 95 -42 101 -47 6 -4 53 -69 104 -143 51 -75 96 -137 100 -140 4 -2 13 13
20 35 l13 39 -72 96 c-40 53 -74 102 -77 109 -4 10 17 15 88 20 180 14 174 12
196 70 11 28 41 128 67 221 25 94 48 178 51 188 4 13 -1 17 -19 17 -21 0 -26
-8 -44 -72z"/>
<path d="M3837 3443 c-39 -18 -57 -32 -54 -42 3 -17 19 -18 50 -6 16 7 17 -4
17 -154 l0 -161 30 0 30 0 0 195 c0 107 -3 195 -7 195 -5 -1 -34 -13 -66 -27z"/>
<path d="M4050 3452 c-20 -16 -21 -21 -10 -42 12 -22 13 -22 23 -4 14 25 27
34 53 34 30 0 46 -23 46 -65 0 -43 -25 -75 -59 -75 -14 0 -23 -6 -23 -15 0
-10 10 -15 30 -15 41 0 70 -31 70 -75 0 -71 -77 -109 -132 -65 -28 22 -38 18
-38 -16 0 -58 175 -41 216 22 10 14 14 40 12 70 -3 41 -8 51 -33 69 l-31 20
25 21 c37 32 36 97 -2 130 -36 30 -113 33 -147 6z"/>
<path d="M4369 3455 c-38 -20 -63 -78 -56 -129 11 -79 93 -119 166 -81 l29 14
-9 -42 c-19 -85 -73 -123 -135 -93 -35 16 -42 10 -24 -25 8 -15 21 -19 59 -19
95 0 160 77 169 200 8 123 -36 190 -126 190 -26 -1 -59 -7 -73 -15z m109 -32
c67 -58 -6 -197 -76 -147 -27 19 -36 66 -22 109 18 54 60 70 98 38z"/>
<path d="M4691 3456 c-52 -29 -64 -89 -27 -132 l23 -28 -28 -23 c-81 -69 -24
-193 89 -193 83 0 132 48 132 130 0 33 -6 48 -29 69 -29 27 -29 28 -11 47 40
39 25 115 -26 134 -35 14 -95 12 -123 -4z m84 -22 c25 -10 36 -49 24 -81 -18
-47 -47 -55 -79 -23 -24 24 -26 57 -4 88 16 23 30 27 59 16z m24 -180 c54 -69
-7 -172 -79 -134 -27 15 -43 70 -30 106 22 58 75 72 109 28z"/>
<path d="M1869 3397 c-53 -35 -68 -77 -69 -187 0 -100 -10 -128 -51 -151 -44
-23 -109 32 -109 93 0 13 6 35 14 49 13 26 13 27 -22 33 -43 7 -52 -3 -52 -60
0 -54 46 -142 89 -171 63 -43 155 -22 198 44 14 21 18 49 19 136 2 97 4 111
24 132 49 52 130 27 157 -50 17 -46 4 -126 -24 -157 -15 -17 -14 -18 30 -18
46 0 46 0 58 42 14 55 6 115 -26 178 -51 101 -157 140 -236 87z"/>
<path d="M6030 2613 c-96 -101 -175 -189 -175 -195 0 -6 11 -19 26 -30 l25
-19 110 113 c61 62 128 132 150 155 l39 43 99 -92 98 -92 29 34 28 35 -121
115 c-66 63 -124 116 -127 116 -3 1 -85 -81 -181 -183z"/>
<path d="M2380 2723 c-14 -2 -68 -4 -120 -5 l-95 -3 -3 -44 -3 -43 117 7 117
7 -6 -38 c-4 -22 -9 -72 -13 -111 l-7 -73 41 0 41 0 6 48 c4 26 8 58 10 71 3
13 7 61 11 106 l7 83 -39 -1 c-22 -1 -50 -3 -64 -4z"/>
<path d="M6484 2466 l-68 -74 -64 56 -63 55 -32 -31 -32 -32 63 -57 63 -56
-32 -33 -33 -34 -58 57 -58 57 -32 -32 -32 -32 59 -60 59 -60 -42 -43 -42 -43
28 -27 29 -28 206 215 c114 118 207 219 207 224 0 9 -43 52 -52 52 -4 0 -37
-33 -74 -74z"/>
<path d="M2510 2485 l-24 -25 35 -36 34 -35 -42 -40 c-24 -22 -43 -43 -43 -46
0 -4 12 -19 27 -35 l26 -27 109 101 109 101 -30 31 -31 30 -28 -27 c-35 -34
-42 -34 -77 3 -16 17 -32 30 -35 30 -4 0 -17 -11 -30 -25z"/>
<path d="M2193 2399 c-129 -82 -45 -299 116 -299 133 0 190 160 93 264 -54 57
-149 74 -209 35z m137 -69 c27 -14 44 -50 42 -85 -8 -100 -162 -80 -162 21 0
60 64 94 120 64z"/>
<path d="M5628 2294 c-16 -8 -28 -17 -28 -19 0 -4 149 -277 155 -283 5 -6 38
7 59 23 18 13 17 17 -18 80 -20 36 -36 68 -36 70 0 3 15 12 33 21 17 9 33 18
35 19 6 5 -28 65 -36 65 -4 -1 -18 -7 -32 -15 -37 -21 -45 -19 -63 20 -18 39
-29 41 -69 19z"/>
<path d="M2914 2259 c-19 -37 -31 -27 131 -113 66 -36 143 -78 172 -93 l52
-29 -31 -60 c-17 -32 -32 -60 -33 -61 -1 -2 -90 44 -198 102 -108 58 -201 105
-206 105 -6 0 -17 -13 -25 -29 -18 -34 -16 -36 64 -76 82 -41 81 -40 54 -89
l-24 -43 40 -18 c22 -10 42 -16 43 -14 2 2 14 21 26 41 22 37 23 38 52 23 16
-9 29 -18 29 -21 0 -2 -9 -23 -21 -45 -11 -23 -19 -42 -17 -44 6 -5 67 -35 72
-35 3 0 15 18 26 40 11 22 23 40 26 40 2 0 33 -16 68 -35 l63 -34 17 36 c14
29 15 38 4 44 -10 7 -2 31 36 104 28 52 48 96 45 99 -10 9 -435 236 -443 236
-3 0 -13 -14 -22 -31z"/>
<path d="M5455 2185 c-60 -34 -60 -34 -76 -14 -15 20 -16 20 -52 3 -23 -11
-36 -23 -32 -31 3 -7 7 -19 10 -26 3 -7 -19 -25 -57 -46 -35 -19 -65 -36 -67
-37 -7 -6 21 -64 31 -64 5 0 17 4 27 10 16 8 19 4 25 -29 12 -77 89 -133 174
-126 149 12 216 198 105 291 -25 22 -25 22 -4 29 11 3 21 11 21 16 0 13 -30
59 -39 59 -3 0 -33 -16 -66 -35z m38 -147 c37 -43 11 -109 -50 -124 -58 -15
-108 47 -81 103 25 53 93 64 131 21z"/>
<path d="M5608 1862 l-226 -127 14 -27 c8 -15 18 -29 22 -32 5 -3 93 42 197
100 103 57 191 104 194 104 3 0 17 -20 30 -45 13 -25 29 -45 35 -45 9 0 39 17
65 36 7 6 -83 164 -93 163 -6 0 -113 -58 -238 -127z"/>
<path d="M2720 1893 c-25 -47 -40 -88 -35 -90 6 -2 109 -57 230 -122 l220
-119 17 29 c10 16 18 33 18 37 0 4 -86 52 -190 107 -104 55 -190 102 -190 105
1 3 12 23 25 45 14 22 25 46 25 52 0 12 -49 43 -67 43 -4 0 -28 -39 -53 -87z"/>
<path d="M4929 1973 c-14 -3 -15 -12 -2 -85 8 -44 13 -82 11 -83 -2 -2 -12 -5
-22 -7 -21 -3 -26 11 -41 115 l-6 49 -42 -7 c-23 -4 -43 -8 -45 -10 -1 -1 11
-78 27 -171 17 -92 28 -171 25 -174 -12 -12 -249 -48 -255 -38 -4 5 -14 58
-23 116 -10 59 -19 115 -22 124 -4 14 11 19 93 34 l99 17 -4 33 c-5 41 0 40
-159 12 -110 -19 -123 -23 -123 -41 0 -18 61 -388 65 -394 0 -1 77 11 169 27
93 16 172 28 176 25 4 -2 10 -27 13 -55 3 -28 9 -54 12 -59 4 -8 71 1 81 11 2
2 -8 69 -21 149 -14 79 -25 147 -25 152 0 4 10 7 23 7 21 0 24 -8 48 -147 l25
-148 37 1 c21 1 40 4 43 7 4 3 -12 115 -35 249 -56 328 -48 298 -79 297 -15
-1 -34 -3 -43 -6z"/>
<path d="M3616 1928 c-3 -18 -2 -34 4 -38 5 -3 67 -15 136 -25 l126 -19 -7
-55 c-10 -88 -10 -89 -53 -82 -36 7 -37 7 -34 47 3 39 1 42 -29 48 -52 10 -56
8 -63 -35 -6 -36 -9 -40 -29 -35 -12 3 -40 8 -63 12 -37 5 -42 4 -47 -17 -13
-48 -9 -56 36 -62 62 -10 357 -56 395 -62 33 -6 33 -7 27 -49 l-7 -43 37 -7
c21 -4 41 -4 45 1 4 4 13 44 19 88 20 130 16 123 65 118 43 -5 43 -5 49 28 2
19 3 36 2 37 -2 2 -21 6 -44 9 l-40 5 6 49 c5 45 4 48 -20 54 -55 14 -60 7
-77 -102 -9 -56 -19 -105 -23 -109 -3 -3 -22 -3 -42 0 -33 7 -36 10 -31 34 10
47 26 156 26 174 0 12 -10 19 -32 22 -18 3 -90 14 -159 26 -167 26 -165 27
-173 -12z"/>
<path d="M3568 1521 c-9 -53 -14 -97 -13 -99 3 -3 45 -10 314 -53 209 -33 211
-33 211 22 l0 25 -212 33 c-117 18 -214 34 -214 35 -1 0 2 27 7 60 5 32 8 60
7 61 -2 1 -21 5 -44 7 l-41 6 -15 -97z"/>
</g>
</svg>
